<?xml version="1.0" encoding="UTF-8" standalone="no"?>
<!-- Created with Inkscape (http://www.inkscape.org/) -->

<svg
   version="1.1"
   id="svg2"
   width="150.4519"
   height="208.79602"
   viewBox="0 0 150.4519 208.79601"
   sodipodi:docname="Fireball - Logo Template.ai"
   xmlns:inkscape="http://www.inkscape.org/namespaces/inkscape"
   xmlns:sodipodi="http://sodipodi.sourceforge.net/DTD/sodipodi-0.dtd"
   xmlns="http://www.w3.org/2000/svg"
   xmlns:svg="http://www.w3.org/2000/svg">
  <defs
     id="defs6">
    <clipPath
       clipPathUnits="userSpaceOnUse"
       id="clipPath22">
      <path
         d="M 0,1026.033 H 615.28 V 0 H 0 Z"
         id="path20" />
    </clipPath>
    <linearGradient
       x1="0"
       y1="0"
       x2="1"
       y2="0"
       gradientUnits="userSpaceOnUse"
       gradientTransform="matrix(-9.5e-6,217.31407,217.31407,9.5e-6,307.65137,372.35937)"
       spreadMethod="pad"
       id="linearGradient1844">
      <stop
         style="stop-opacity:1;stop-color:#ffffff"
         offset="0"
         id="stop1838" />
      <stop
         style="stop-opacity:1;stop-color:#c9c9ca"
         offset="0.5"
         id="stop1840" />
      <stop
         style="stop-opacity:1;stop-color:#5c5b5b"
         offset="1"
         id="stop1842" />
    </linearGradient>
    <linearGradient
       x1="0"
       y1="0"
       x2="1"
       y2="0"
       gradientUnits="userSpaceOnUse"
       gradientTransform="matrix(-6.1e-6,140.47917,140.47917,6.1e-6,307.65137,415.3623)"
       spreadMethod="pad"
       id="linearGradient1866">
      <stop
         style="stop-opacity:1;stop-color:#ffffff"
         offset="0"
         id="stop1860" />
      <stop
         style="stop-opacity:1;stop-color:#c9c9ca"
         offset="0.5"
         id="stop1862" />
      <stop
         style="stop-opacity:1;stop-color:#5c5b5b"
         offset="1"
         id="stop1864" />
    </linearGradient>
    <linearGradient
       x1="0"
       y1="0"
       x2="1"
       y2="0"
       gradientUnits="userSpaceOnUse"
       gradientTransform="matrix(-72.12323,-142.89183,-142.89183,72.12323,381.58105,577.18652)"
       spreadMethod="pad"
       id="linearGradient1888">
      <stop
         style="stop-opacity:1;stop-color:#ffffff"
         offset="0"
         id="stop1882" />
      <stop
         style="stop-opacity:1;stop-color:#c9c9ca"
         offset="0.5"
         id="stop1884" />
      <stop
         style="stop-opacity:1;stop-color:#5c5b5b"
         offset="1"
         id="stop1886" />
    </linearGradient>
    <linearGradient
       x1="0"
       y1="0"
       x2="1"
       y2="0"
       gradientUnits="userSpaceOnUse"
       gradientTransform="matrix(-20.577846,-88.622086,-88.622086,20.577846,357.68066,555.58008)"
       spreadMethod="pad"
       id="linearGradient1910">
      <stop
         style="stop-opacity:1;stop-color:#ffffff"
         offset="0"
         id="stop1904" />
      <stop
         style="stop-opacity:1;stop-color:#c9c9ca"
         offset="0.5"
         id="stop1906" />
      <stop
         style="stop-opacity:1;stop-color:#5c5b5b"
         offset="1"
         id="stop1908" />
    </linearGradient>
    <radialGradient
       fx="0"
       fy="0"
       cx="0"
       cy="0"
       r="1"
       gradientUnits="userSpaceOnUse"
       gradientTransform="matrix(59.489037,0,0,-59.489037,338.60547,530.6123)"
       spreadMethod="pad"
       id="radialGradient1932">
      <stop
         style="stop-opacity:1;stop-color:#ffffff"
         offset="0"
         id="stop1926" />
      <stop
         style="stop-opacity:1;stop-color:#c9c9ca"
         offset="0.5"
         id="stop1928" />
      <stop
         style="stop-opacity:1;stop-color:#5c5b5b"
         offset="1"
         id="stop1930" />
    </radialGradient>
    <linearGradient
       x1="0"
       y1="0"
       x2="1"
       y2="0"
       gradientUnits="userSpaceOnUse"
       gradientTransform="matrix(-89.090721,-176.50813,-176.50813,89.090721,294.77881,590.92432)"
       spreadMethod="pad"
       id="linearGradient1954">
      <stop
         style="stop-opacity:1;stop-color:#ffffff"
         offset="0"
         id="stop1948" />
      <stop
         style="stop-opacity:1;stop-color:#c9c9ca"
         offset="0.5"
         id="stop1950" />
      <stop
         style="stop-opacity:1;stop-color:#5c5b5b"
         offset="1"
         id="stop1952" />
    </linearGradient>
    <linearGradient
       x1="0"
       y1="0"
       x2="1"
       y2="0"
       gradientUnits="userSpaceOnUse"
       gradientTransform="matrix(-22.818785,-98.273071,-98.273071,22.818785,268.75977,558.4541)"
       spreadMethod="pad"
       id="linearGradient1976">
      <stop
         style="stop-opacity:1;stop-color:#ffffff"
         offset="0"
         id="stop1970" />
      <stop
         style="stop-opacity:1;stop-color:#c9c9ca"
         offset="0.5"
         id="stop1972" />
      <stop
         style="stop-opacity:1;stop-color:#5c5b5b"
         offset="1"
         id="stop1974" />
    </linearGradient>
    <radialGradient
       fx="0"
       fy="0"
       cx="0"
       cy="0"
       r="1"
       gradientUnits="userSpaceOnUse"
       gradientTransform="matrix(59.489037,0,0,-59.489037,265.57275,530.6123)"
       spreadMethod="pad"
       id="radialGradient1998">
      <stop
         style="stop-opacity:1;stop-color:#ffffff"
         offset="0"
         id="stop1992" />
      <stop
         style="stop-opacity:1;stop-color:#c9c9ca"
         offset="0.5"
         id="stop1994" />
      <stop
         style="stop-opacity:1;stop-color:#5c5b5b"
         offset="1"
         id="stop1996" />
    </radialGradient>
    <linearGradient
       x1="0"
       y1="0"
       x2="1"
       y2="0"
       gradientUnits="userSpaceOnUse"
       gradientTransform="matrix(20.355053,-157.96629,-157.96629,-20.355053,316.17578,647.2207)"
       spreadMethod="pad"
       id="linearGradient2020">
      <stop
         style="stop-opacity:1;stop-color:#ffffff"
         offset="0"
         id="stop2014" />
      <stop
         style="stop-opacity:1;stop-color:#c9c9ca"
         offset="0.5"
         id="stop2016" />
      <stop
         style="stop-opacity:1;stop-color:#5c5b5b"
         offset="1"
         id="stop2018" />
    </linearGradient>
    <radialGradient
       fx="0"
       fy="0"
       cx="0"
       cy="0"
       r="1"
       gradientUnits="userSpaceOnUse"
       gradientTransform="matrix(42.924034,0,0,-42.924034,350.78809,588.09424)"
       spreadMethod="pad"
       id="radialGradient2042">
      <stop
         style="stop-opacity:1;stop-color:#ffffff"
         offset="0"
         id="stop2036" />
      <stop
         style="stop-opacity:1;stop-color:#c9c9ca"
         offset="0.5"
         id="stop2038" />
      <stop
         style="stop-opacity:1;stop-color:#5c5b5b"
         offset="1"
         id="stop2040" />
    </radialGradient>
    <radialGradient
       fx="0"
       fy="0"
       cx="0"
       cy="0"
       r="1"
       gradientUnits="userSpaceOnUse"
       gradientTransform="matrix(81.141235,0,0,-81.141235,357.38281,610.02588)"
       spreadMethod="pad"
       id="radialGradient2064">
      <stop
         style="stop-opacity:1;stop-color:#ffffff"
         offset="0"
         id="stop2058" />
      <stop
         style="stop-opacity:1;stop-color:#c9c9ca"
         offset="0.5"
         id="stop2060" />
      <stop
         style="stop-opacity:1;stop-color:#5c5b5b"
         offset="1"
         id="stop2062" />
    </radialGradient>
    <radialGradient
       fx="0"
       fy="0"
       cx="0"
       cy="0"
       r="1"
       gradientUnits="userSpaceOnUse"
       gradientTransform="matrix(65.894608,0,0,-65.894608,324.55762,517.42529)"
       spreadMethod="pad"
       id="radialGradient2086">
      <stop
         style="stop-opacity:1;stop-color:#ffffff"
         offset="0"
         id="stop2080" />
      <stop
         style="stop-opacity:1;stop-color:#c9c9ca"
         offset="0.5"
         id="stop2082" />
      <stop
         style="stop-opacity:1;stop-color:#5c5b5b"
         offset="1"
         id="stop2084" />
    </radialGradient>
    <radialGradient
       fx="0"
       fy="0"
       cx="0"
       cy="0"
       r="1"
       gradientUnits="userSpaceOnUse"
       gradientTransform="matrix(53.440987,0,0,-53.440987,331.43848,537.34961)"
       spreadMethod="pad"
       id="radialGradient2108">
      <stop
         style="stop-opacity:1;stop-color:#ffffff"
         offset="0"
         id="stop2102" />
      <stop
         style="stop-opacity:1;stop-color:#c9c9ca"
         offset="0.5"
         id="stop2104" />
      <stop
         style="stop-opacity:1;stop-color:#5c5b5b"
         offset="1"
         id="stop2106" />
    </radialGradient>
    <radialGradient
       fx="0"
       fy="0"
       cx="0"
       cy="0"
       r="1"
       gradientUnits="userSpaceOnUse"
       gradientTransform="matrix(153.74957,0,0,-153.74957,402.68457,642.70752)"
       spreadMethod="pad"
       id="radialGradient2130">
      <stop
         style="stop-opacity:1;stop-color:#ffffff"
         offset="0"
         id="stop2124" />
      <stop
         style="stop-opacity:1;stop-color:#c9c9ca"
         offset="0.5"
         id="stop2126" />
      <stop
         style="stop-opacity:1;stop-color:#5c5b5b"
         offset="1"
         id="stop2128" />
    </radialGradient>
    <radialGradient
       fx="0"
       fy="0"
       cx="0"
       cy="0"
       r="1"
       gradientUnits="userSpaceOnUse"
       gradientTransform="matrix(118.69215,0,0,-118.69215,336.74023,636.68945)"
       spreadMethod="pad"
       id="radialGradient2152">
      <stop
         style="stop-opacity:1;stop-color:#ffffff"
         offset="0"
         id="stop2146" />
      <stop
         style="stop-opacity:1;stop-color:#c9c9ca"
         offset="0.5"
         id="stop2148" />
      <stop
         style="stop-opacity:1;stop-color:#5c5b5b"
         offset="1"
         id="stop2150" />
    </radialGradient>
    <radialGradient
       fx="0"
       fy="0"
       cx="0"
       cy="0"
       r="1"
       gradientUnits="userSpaceOnUse"
       gradientTransform="matrix(50.448265,0,0,-50.448265,323.125,544.08691)"
       spreadMethod="pad"
       id="radialGradient2174">
      <stop
         style="stop-opacity:1;stop-color:#ffffff"
         offset="0"
         id="stop2168" />
      <stop
         style="stop-opacity:1;stop-color:#c9c9ca"
         offset="0.5"
         id="stop2170" />
      <stop
         style="stop-opacity:1;stop-color:#5c5b5b"
         offset="1"
         id="stop2172" />
    </radialGradient>
    <linearGradient
       x1="0"
       y1="0"
       x2="1"
       y2="0"
       gradientUnits="userSpaceOnUse"
       gradientTransform="matrix(19.343004,-150.11223,-150.11223,-19.343004,273.72949,641.05518)"
       spreadMethod="pad"
       id="linearGradient2196">
      <stop
         style="stop-opacity:1;stop-color:#ffffff"
         offset="0"
         id="stop2190" />
      <stop
         style="stop-opacity:1;stop-color:#c9c9ca"
         offset="0.5"
         id="stop2192" />
      <stop
         style="stop-opacity:1;stop-color:#5c5b5b"
         offset="1"
         id="stop2194" />
    </linearGradient>
    <radialGradient
       fx="0"
       fy="0"
       cx="0"
       cy="0"
       r="1"
       gradientUnits="userSpaceOnUse"
       gradientTransform="matrix(42.923733,0,0,-42.923733,313.48437,588.09424)"
       spreadMethod="pad"
       id="radialGradient2218">
      <stop
         style="stop-opacity:1;stop-color:#ffffff"
         offset="0"
         id="stop2212" />
      <stop
         style="stop-opacity:1;stop-color:#c9c9ca"
         offset="0.5"
         id="stop2214" />
      <stop
         style="stop-opacity:1;stop-color:#5c5b5b"
         offset="1"
         id="stop2216" />
    </radialGradient>
    <radialGradient
       fx="0"
       fy="0"
       cx="0"
       cy="0"
       r="1"
       gradientUnits="userSpaceOnUse"
       gradientTransform="matrix(81.141266,0,0,-81.141266,277.60645,610.02588)"
       spreadMethod="pad"
       id="radialGradient2240">
      <stop
         style="stop-opacity:1;stop-color:#ffffff"
         offset="0"
         id="stop2234" />
      <stop
         style="stop-opacity:1;stop-color:#c9c9ca"
         offset="0.5"
         id="stop2236" />
      <stop
         style="stop-opacity:1;stop-color:#5c5b5b"
         offset="1"
         id="stop2238" />
    </radialGradient>
    <radialGradient
       fx="0"
       fy="0"
       cx="0"
       cy="0"
       r="1"
       gradientUnits="userSpaceOnUse"
       gradientTransform="matrix(65.893517,0,0,-65.893517,270.64746,517.42529)"
       spreadMethod="pad"
       id="radialGradient2262">
      <stop
         style="stop-opacity:1;stop-color:#ffffff"
         offset="0"
         id="stop2256" />
      <stop
         style="stop-opacity:1;stop-color:#c9c9ca"
         offset="0.5"
         id="stop2258" />
      <stop
         style="stop-opacity:1;stop-color:#5c5b5b"
         offset="1"
         id="stop2260" />
    </radialGradient>
    <radialGradient
       fx="0"
       fy="0"
       cx="0"
       cy="0"
       r="1"
       gradientUnits="userSpaceOnUse"
       gradientTransform="matrix(53.44305,0,0,-53.44305,277.20117,537.34961)"
       spreadMethod="pad"
       id="radialGradient2284">
      <stop
         style="stop-opacity:1;stop-color:#ffffff"
         offset="0"
         id="stop2278" />
      <stop
         style="stop-opacity:1;stop-color:#c9c9ca"
         offset="0.5"
         id="stop2280" />
      <stop
         style="stop-opacity:1;stop-color:#5c5b5b"
         offset="1"
         id="stop2282" />
    </radialGradient>
    <radialGradient
       fx="0"
       fy="0"
       cx="0"
       cy="0"
       r="1"
       gradientUnits="userSpaceOnUse"
       gradientTransform="matrix(153.74677,0,0,-153.74677,332.95801,642.70752)"
       spreadMethod="pad"
       id="radialGradient2306">
      <stop
         style="stop-opacity:1;stop-color:#ffffff"
         offset="0"
         id="stop2300" />
      <stop
         style="stop-opacity:1;stop-color:#c9c9ca"
         offset="0.5"
         id="stop2302" />
      <stop
         style="stop-opacity:1;stop-color:#5c5b5b"
         offset="1"
         id="stop2304" />
    </radialGradient>
    <radialGradient
       fx="0"
       fy="0"
       cx="0"
       cy="0"
       r="1"
       gradientUnits="userSpaceOnUse"
       gradientTransform="matrix(118.69215,0,0,-118.69215,287.5708,636.68945)"
       spreadMethod="pad"
       id="radialGradient2328">
      <stop
         style="stop-opacity:1;stop-color:#ffffff"
         offset="0"
         id="stop2322" />
      <stop
         style="stop-opacity:1;stop-color:#c9c9ca"
         offset="0.5"
         id="stop2324" />
      <stop
         style="stop-opacity:1;stop-color:#5c5b5b"
         offset="1"
         id="stop2326" />
    </radialGradient>
    <radialGradient
       fx="0"
       fy="0"
       cx="0"
       cy="0"
       r="1"
       gradientUnits="userSpaceOnUse"
       gradientTransform="matrix(50.453701,0,0,-50.453701,270.54443,544.08691)"
       spreadMethod="pad"
       id="radialGradient2350">
      <stop
         style="stop-opacity:1;stop-color:#ffffff"
         offset="0"
         id="stop2344" />
      <stop
         style="stop-opacity:1;stop-color:#c9c9ca"
         offset="0.5"
         id="stop2346" />
      <stop
         style="stop-opacity:1;stop-color:#5c5b5b"
         offset="1"
         id="stop2348" />
    </radialGradient>
  </defs>
  <sodipodi:namedview
     id="namedview4"
     pagecolor="#ffffff"
     bordercolor="#000000"
     borderopacity="0.25"
     inkscape:showpageshadow="2"
     inkscape:pageopacity="0.0"
     inkscape:pagecheckerboard="0"
     inkscape:deskcolor="#d1d1d1"
     showgrid="false" />
  <g
     id="g10"
     inkscape:groupmode="layer"
     inkscape:label="Page 1"
     transform="matrix(1.3333333,0,0,-1.3333333,-334.96341,796.35731)">
    <g
       id="g16">
      <g
         id="g18"
         clip-path="url(#clipPath22)">
        <g
           id="g24"
           transform="translate(60.7183,338.2275)">
          <path
             d="M 0,0 C -0.109,0 -0.205,0.028 -0.282,0.083 -0.359,0.14 -0.409,0.209 -0.431,0.295 -0.453,0.38 -0.463,0.681 -0.463,1.197 v 2.55 H 0.679 V 5.081 H -0.463 V 7.315 L -2.143,6.34 V 5.081 H -2.912 V 3.747 h 0.769 V 0.99 c 0,-0.592 0.018,-0.986 0.053,-1.179 0.045,-0.275 0.122,-0.493 0.236,-0.653 0.114,-0.161 0.291,-0.293 0.532,-0.394 0.242,-0.1 0.515,-0.151 0.816,-0.151 0.494,0 0.933,0.083 1.324,0.25 L 0.675,0.16 C 0.38,0.055 0.157,0 0,0"
             style="fill:#c9cacb;fill-opacity:1;fill-rule:nonzero;stroke:none"
             id="path26" />
        </g>
        <g
           id="g28"
           transform="translate(63.8174,340.6875)">
          <path
             d="m 0,0 c -0.004,0.458 0.114,0.819 0.352,1.084 0.238,0.267 0.539,0.4 0.905,0.4 0.341,0 0.632,-0.126 0.87,-0.378 C 2.365,0.854 2.489,0.486 2.501,0 Z M 3.384,1.832 C 2.839,2.455 2.097,2.766 1.155,2.766 0.317,2.766 -0.376,2.469 -0.923,1.875 -1.472,1.281 -1.747,0.46 -1.747,-0.59 c 0,-0.876 0.21,-1.603 0.627,-2.18 0.529,-0.719 1.342,-1.077 2.442,-1.077 0.696,0 1.275,0.159 1.737,0.48 0.463,0.319 0.8,0.785 1.016,1.397 L 2.406,-1.691 C 2.316,-2.009 2.18,-2.238 2.001,-2.383 1.822,-2.525 1.603,-2.597 1.34,-2.597 c -0.384,0 -0.707,0.139 -0.965,0.415 -0.259,0.275 -0.393,0.661 -0.405,1.158 H 4.165 C 4.187,0.259 3.927,1.21 3.384,1.832"
             style="fill:#c9cacb;fill-opacity:1;fill-rule:nonzero;stroke:none"
             id="path30" />
        </g>
        <path
           d="m 55.108,336.982 h 1.674 v 8.733 h -1.674 z"
           style="fill:#c9cacb;fill-opacity:1;fill-rule:nonzero;stroke:none"
           id="path32" />
        <g
           id="g34"
           transform="translate(85.0366,339.6875)">
          <path
             d="m 0,0 c 0,-0.4 -0.021,-0.674 -0.065,-0.815 -0.063,-0.22 -0.195,-0.405 -0.399,-0.556 -0.274,-0.197 -0.561,-0.297 -0.864,-0.297 -0.271,0 -0.492,0.086 -0.667,0.257 -0.175,0.171 -0.262,0.372 -0.262,0.607 0,0.239 0.11,0.434 0.327,0.59 0.144,0.094 0.448,0.192 0.911,0.291 0.466,0.1 0.805,0.185 1.019,0.256 z M 1.626,-0.627 1.645,1.327 C 1.645,2.056 1.569,2.554 1.421,2.826 1.273,3.099 1.015,3.322 0.65,3.499 0.285,3.676 -0.271,3.766 -1.019,3.766 -1.841,3.766 -2.458,3.617 -2.877,3.324 -3.294,3.029 -3.587,2.578 -3.758,1.966 l 1.519,-0.275 c 0.104,0.295 0.238,0.501 0.405,0.617 0.167,0.118 0.398,0.176 0.697,0.176 0.441,0 0.741,-0.069 0.899,-0.205 C -0.08,2.141 0,1.913 0,1.59 V 1.423 C -0.301,1.297 -0.844,1.159 -1.625,1.013 -2.205,0.9 -2.65,0.771 -2.957,0.622 -3.264,0.474 -3.503,0.26 -3.675,-0.021 c -0.171,-0.28 -0.256,-0.599 -0.256,-0.956 0,-0.541 0.187,-0.988 0.563,-1.341 0.375,-0.352 0.889,-0.529 1.54,-0.529 0.37,0 0.718,0.07 1.043,0.207 0.325,0.141 0.63,0.348 0.917,0.626 0.013,-0.032 0.033,-0.096 0.059,-0.197 0.063,-0.217 0.118,-0.382 0.161,-0.494 h 1.657 c -0.147,0.302 -0.248,0.586 -0.301,0.849 -0.055,0.263 -0.082,0.674 -0.082,1.229"
             style="fill:#c9cacb;fill-opacity:1;fill-rule:nonzero;stroke:none"
             id="path36" />
        </g>
        <g
           id="g38"
           transform="translate(90.5532,338.2275)">
          <path
             d="M 0,0 C -0.11,0 -0.206,0.028 -0.283,0.083 -0.36,0.14 -0.409,0.209 -0.431,0.295 -0.454,0.38 -0.463,0.681 -0.463,1.197 v 2.55 H 0.679 V 5.081 H -0.463 V 7.315 L -2.144,6.34 V 5.081 H -2.912 V 3.747 h 0.768 V 0.99 c 0,-0.592 0.019,-0.986 0.054,-1.179 0.045,-0.275 0.122,-0.493 0.236,-0.653 0.113,-0.161 0.291,-0.293 0.532,-0.394 0.242,-0.1 0.514,-0.151 0.816,-0.151 0.494,0 0.933,0.083 1.323,0.25 L 0.675,0.16 C 0.38,0.055 0.157,0 0,0"
             style="fill:#c9cacb;fill-opacity:1;fill-rule:nonzero;stroke:none"
             id="path40" />
        </g>
        <g
           id="g42"
           transform="translate(93.6523,340.6875)">
          <path
             d="m 0,0 c -0.004,0.458 0.114,0.819 0.352,1.084 0.237,0.267 0.539,0.4 0.904,0.4 0.342,0 0.633,-0.126 0.87,-0.378 C 2.365,0.854 2.489,0.486 2.501,0 Z M 3.384,1.832 C 2.838,2.455 2.096,2.766 1.155,2.766 0.317,2.766 -0.376,2.469 -0.923,1.875 -1.472,1.281 -1.747,0.46 -1.747,-0.59 c 0,-0.876 0.21,-1.603 0.626,-2.18 0.529,-0.719 1.343,-1.077 2.443,-1.077 0.695,0 1.275,0.159 1.736,0.48 0.464,0.319 0.801,0.785 1.017,1.397 l -1.67,0.279 C 2.316,-2.009 2.18,-2.238 2.001,-2.383 1.822,-2.525 1.602,-2.597 1.34,-2.597 c -0.384,0 -0.708,0.139 -0.966,0.415 -0.258,0.275 -0.393,0.661 -0.405,1.158 H 4.164 C 4.187,0.259 3.926,1.21 3.384,1.832"
             style="fill:#c9cacb;fill-opacity:1;fill-rule:nonzero;stroke:none"
             id="path44" />
        </g>
        <g
           id="g46"
           transform="translate(48.5542,340.4375)">
          <path
             d="M 0,0 1.18,3.241 2.384,0 Z m 0.269,5.278 -3.402,-8.733 h 1.871 l 0.72,1.985 h 3.491 l 0.762,-1.985 h 1.92 L 2.133,5.278 Z"
             style="fill:#c9cacb;fill-opacity:1;fill-rule:nonzero;stroke:none"
             id="path48" />
        </g>
        <g
           id="g50"
           transform="translate(71.5469,343.25)">
          <path
             d="m 0,0 c -0.212,-0.135 -0.452,-0.415 -0.718,-0.84 v 0.899 h -1.553 v -6.327 h 1.673 v 1.955 c 0,1.076 0.047,1.784 0.14,2.121 0.094,0.338 0.22,0.571 0.385,0.699 0.162,0.131 0.36,0.193 0.595,0.193 0.243,0 0.505,-0.091 0.785,-0.272 l 0.519,1.458 C 1.472,0.098 1.106,0.203 0.724,0.203 0.453,0.203 0.213,0.134 0,0"
             style="fill:#c9cacb;fill-opacity:1;fill-rule:nonzero;stroke:none"
             id="path52" />
        </g>
        <g
           id="g54"
           transform="translate(79.4282,342.7441)">
          <path
             d="m 0,0 c -0.156,0.207 -0.388,0.376 -0.693,0.51 -0.305,0.132 -0.645,0.199 -1.013,0.199 -0.838,0 -1.533,-0.357 -2.086,-1.073 v 0.928 h -1.554 v -6.326 h 1.674 v 2.866 c 0,0.708 0.042,1.191 0.128,1.454 0.085,0.262 0.244,0.471 0.474,0.632 0.229,0.159 0.489,0.238 0.78,0.238 0.226,0 0.419,-0.057 0.58,-0.166 0.161,-0.113 0.278,-0.269 0.35,-0.468 0.071,-0.202 0.108,-0.643 0.108,-1.326 v -3.23 h 1.673 v 3.934 c 0,0.487 -0.03,0.861 -0.093,1.124 C 0.267,-0.441 0.157,-0.208 0,0"
             style="fill:#c9cacb;fill-opacity:1;fill-rule:nonzero;stroke:none"
             id="path56" />
        </g>
        <g
           id="g58"
           transform="translate(163.8218,340.9502)">
          <path
             d="m 0,0 c -0.893,0.203 -1.413,0.359 -1.564,0.472 -0.111,0.083 -0.166,0.182 -0.166,0.302 0,0.139 0.063,0.252 0.188,0.34 0.191,0.124 0.507,0.185 0.948,0.185 0.35,0 0.618,-0.065 0.807,-0.196 0.19,-0.131 0.318,-0.321 0.385,-0.566 l 1.578,0.29 C 2.017,1.381 1.729,1.798 1.308,2.08 0.887,2.36 0.242,2.503 -0.625,2.503 -1.533,2.503 -2.204,2.316 -2.637,1.941 -3.07,1.569 -3.286,1.108 -3.286,0.561 c 0,-0.608 0.25,-1.083 0.75,-1.425 0.362,-0.246 1.218,-0.519 2.568,-0.816 0.289,-0.067 0.476,-0.14 0.56,-0.219 0.079,-0.083 0.119,-0.19 0.119,-0.318 0,-0.184 -0.072,-0.335 -0.221,-0.445 -0.218,-0.16 -0.543,-0.24 -0.976,-0.24 -0.395,0 -0.7,0.086 -0.917,0.255 -0.22,0.168 -0.364,0.417 -0.435,0.742 l -1.68,-0.257 c 0.155,-0.6 0.482,-1.075 0.984,-1.423 0.505,-0.35 1.186,-0.524 2.048,-0.524 0.949,0 1.665,0.207 2.15,0.624 0.485,0.417 0.728,0.917 0.728,1.496 0,0.531 -0.175,0.945 -0.525,1.245 C 1.513,-0.449 0.891,-0.201 0,0"
             style="fill:#c9cacb;fill-opacity:1;fill-rule:nonzero;stroke:none"
             id="path60" />
        </g>
        <path
           d="m 167.679,336.982 h 1.674 v 6.326 h -1.674 z"
           style="fill:#c9cacb;fill-opacity:1;fill-rule:nonzero;stroke:none"
           id="path62" />
        <path
           d="m 167.679,344.167 h 1.674 v 1.549 h -1.674 z"
           style="fill:#c9cacb;fill-opacity:1;fill-rule:nonzero;stroke:none"
           id="path64" />
        <g
           id="g66"
           transform="translate(158.3457,343.25)">
          <path
             d="m 0,0 c -0.211,-0.135 -0.451,-0.415 -0.718,-0.84 v 0.899 h -1.553 v -6.327 h 1.673 v 1.955 c 0,1.076 0.047,1.784 0.14,2.121 0.094,0.338 0.22,0.571 0.385,0.699 0.162,0.131 0.36,0.193 0.595,0.193 0.243,0 0.505,-0.091 0.786,-0.272 l 0.518,1.458 C 1.472,0.098 1.106,0.203 0.724,0.203 0.454,0.203 0.214,0.134 0,0"
             style="fill:#c9cacb;fill-opacity:1;fill-rule:nonzero;stroke:none"
             id="path68" />
        </g>
        <g
           id="g70"
           transform="translate(175.0444,338.7051)">
          <path
             d="m 0,0 c -0.295,-0.333 -0.661,-0.5 -1.098,-0.5 -0.437,0 -0.805,0.167 -1.102,0.5 -0.299,0.333 -0.447,0.813 -0.447,1.441 0,0.627 0.148,1.109 0.447,1.443 0.297,0.333 0.665,0.5 1.102,0.5 0.437,0 0.803,-0.167 1.098,-0.5 C 0.296,2.55 0.445,2.072 0.445,1.454 0.445,0.817 0.296,0.333 0,0 M -1.104,4.748 C -1.725,4.748 -2.286,4.609 -2.788,4.335 -3.291,4.062 -3.679,3.664 -3.953,3.146 -4.226,2.625 -4.364,2.086 -4.364,1.531 c 0,-0.728 0.138,-1.344 0.411,-1.85 0.274,-0.506 0.675,-0.891 1.202,-1.154 0.526,-0.261 1.077,-0.391 1.659,-0.391 0.937,0 1.714,0.312 2.332,0.943 0.616,0.63 0.926,1.423 0.926,2.379 0,0.949 -0.306,1.734 -0.918,2.356 -0.612,0.623 -1.397,0.934 -2.352,0.934"
             style="fill:#c9cacb;fill-opacity:1;fill-rule:nonzero;stroke:none"
             id="path72" />
        </g>
        <g
           id="g74"
           transform="translate(183.8555,342.7441)">
          <path
             d="m 0,0 c -0.157,0.207 -0.389,0.376 -0.694,0.51 -0.305,0.132 -0.644,0.199 -1.013,0.199 -0.837,0 -1.533,-0.357 -2.085,-1.073 v 0.928 h -1.554 v -6.326 h 1.674 v 2.866 c 0,0.708 0.042,1.191 0.127,1.454 0.086,0.262 0.244,0.471 0.474,0.632 0.23,0.159 0.49,0.238 0.781,0.238 0.226,0 0.419,-0.057 0.58,-0.166 0.16,-0.113 0.278,-0.269 0.349,-0.468 0.071,-0.202 0.108,-0.643 0.108,-1.326 v -3.23 h 1.674 v 3.934 c 0,0.487 -0.031,0.861 -0.094,1.124 C 0.266,-0.441 0.156,-0.208 0,0"
             style="fill:#c9cacb;fill-opacity:1;fill-rule:nonzero;stroke:none"
             id="path76" />
        </g>
        <g
           id="g78"
           transform="translate(150.6167,340.6875)">
          <path
             d="m 0,0 c -0.004,0.458 0.114,0.819 0.352,1.084 0.238,0.267 0.539,0.4 0.905,0.4 0.341,0 0.632,-0.126 0.87,-0.378 C 2.365,0.854 2.489,0.486 2.501,0 Z M 3.384,1.832 C 2.839,2.455 2.097,2.766 1.155,2.766 0.317,2.766 -0.376,2.469 -0.923,1.875 -1.472,1.281 -1.747,0.46 -1.747,-0.59 c 0,-0.876 0.21,-1.603 0.626,-2.18 0.529,-0.719 1.343,-1.077 2.443,-1.077 0.695,0 1.275,0.159 1.736,0.48 0.464,0.319 0.801,0.785 1.017,1.397 l -1.67,0.279 C 2.316,-2.009 2.18,-2.238 2.001,-2.383 1.822,-2.525 1.603,-2.597 1.34,-2.597 c -0.384,0 -0.708,0.139 -0.966,0.415 -0.258,0.275 -0.393,0.661 -0.405,1.158 H 4.165 C 4.187,0.259 3.927,1.21 3.384,1.832"
             style="fill:#c9cacb;fill-opacity:1;fill-rule:nonzero;stroke:none"
             id="path80" />
        </g>
        <g
           id="g82"
           transform="translate(135.3276,340.9502)">
          <path
             d="m 0,0 c -0.893,0.203 -1.414,0.359 -1.564,0.472 -0.112,0.083 -0.166,0.182 -0.166,0.302 0,0.139 0.062,0.252 0.188,0.34 0.191,0.124 0.507,0.185 0.948,0.185 0.35,0 0.618,-0.065 0.807,-0.196 C 0.402,0.972 0.53,0.782 0.598,0.537 l 1.577,0.29 C 2.017,1.381 1.728,1.798 1.307,2.08 0.886,2.36 0.242,2.503 -0.625,2.503 c -0.908,0 -1.58,-0.187 -2.013,-0.562 -0.433,-0.372 -0.649,-0.833 -0.649,-1.38 0,-0.608 0.251,-1.083 0.751,-1.425 0.362,-0.246 1.218,-0.519 2.568,-0.816 0.289,-0.067 0.476,-0.14 0.559,-0.219 0.08,-0.083 0.12,-0.19 0.12,-0.318 0,-0.184 -0.073,-0.335 -0.221,-0.445 -0.218,-0.16 -0.543,-0.24 -0.976,-0.24 -0.395,0 -0.7,0.086 -0.917,0.255 -0.22,0.168 -0.364,0.417 -0.435,0.742 l -1.68,-0.257 c 0.155,-0.6 0.482,-1.075 0.984,-1.423 0.504,-0.35 1.186,-0.524 2.048,-0.524 0.949,0 1.665,0.207 2.149,0.624 0.486,0.417 0.728,0.917 0.728,1.496 0,0.531 -0.175,0.945 -0.524,1.245 C 1.513,-0.449 0.891,-0.201 0,0"
             style="fill:#c9cacb;fill-opacity:1;fill-rule:nonzero;stroke:none"
             id="path84" />
        </g>
        <g
           id="g86"
           transform="translate(124.1738,338.7051)">
          <path
             d="m 0,0 c -0.294,-0.333 -0.661,-0.5 -1.098,-0.5 -0.437,0 -0.805,0.167 -1.102,0.5 -0.299,0.333 -0.447,0.813 -0.447,1.441 0,0.627 0.148,1.109 0.447,1.443 0.297,0.333 0.665,0.5 1.102,0.5 0.437,0 0.804,-0.167 1.098,-0.5 C 0.297,2.55 0.445,2.072 0.445,1.454 0.445,0.817 0.297,0.333 0,0 m -1.104,4.748 c -0.62,0 -1.181,-0.139 -1.684,-0.413 -0.502,-0.273 -0.89,-0.671 -1.165,-1.189 -0.273,-0.521 -0.41,-1.06 -0.41,-1.615 0,-0.728 0.137,-1.344 0.41,-1.85 0.275,-0.506 0.675,-0.891 1.202,-1.154 0.526,-0.261 1.078,-0.391 1.659,-0.391 0.938,0 1.715,0.312 2.333,0.943 0.615,0.63 0.925,1.423 0.925,2.379 0,0.949 -0.305,1.734 -0.917,2.356 -0.612,0.623 -1.397,0.934 -2.353,0.934"
             style="fill:#c9cacb;fill-opacity:1;fill-rule:nonzero;stroke:none"
             id="path88" />
        </g>
        <path
           d="m 116.809,336.982 h 1.673 v 8.733 h -1.673 z"
           style="fill:#c9cacb;fill-opacity:1;fill-rule:nonzero;stroke:none"
           id="path90" />
        <g
           id="g92"
           transform="translate(145.4092,340.0801)">
          <path
             d="M 0,0 C -0.063,-0.178 -0.122,-0.356 -0.179,-0.535 -0.202,-0.623 -0.261,-0.804 -0.352,-1.078 L -0.698,0 -1.889,3.229 h -1.757 l 2.55,-6.327 H 0.411 L 2.926,3.229 H 1.204 Z"
             style="fill:#c9cacb;fill-opacity:1;fill-rule:nonzero;stroke:none"
             id="path94" />
        </g>
        <g
           id="g96"
           transform="translate(113.3315,338.7051)">
          <path
             d="m 0,0 c -0.294,-0.333 -0.661,-0.5 -1.098,-0.5 -0.437,0 -0.805,0.167 -1.102,0.5 -0.299,0.333 -0.447,0.813 -0.447,1.441 0,0.627 0.148,1.109 0.447,1.443 0.297,0.333 0.665,0.5 1.102,0.5 0.437,0 0.804,-0.167 1.098,-0.5 C 0.297,2.55 0.445,2.072 0.445,1.454 0.445,0.817 0.297,0.333 0,0 m -1.104,4.748 c -0.62,0 -1.182,-0.139 -1.684,-0.413 -0.502,-0.273 -0.89,-0.671 -1.165,-1.189 -0.273,-0.521 -0.41,-1.06 -0.41,-1.615 0,-0.728 0.137,-1.344 0.41,-1.85 0.275,-0.506 0.675,-0.891 1.202,-1.154 0.526,-0.261 1.078,-0.391 1.659,-0.391 0.938,0 1.715,0.312 2.333,0.943 0.615,0.63 0.925,1.423 0.925,2.379 0,0.949 -0.305,1.734 -0.917,2.356 -0.612,0.623 -1.397,0.934 -2.353,0.934"
             style="fill:#c9cacb;fill-opacity:1;fill-rule:nonzero;stroke:none"
             id="path98" />
        </g>
        <g
           id="g100"
           transform="translate(106.0972,338.4756)">
          <path
             d="m 0,0 c -0.204,-0.182 -0.462,-0.271 -0.781,-0.271 -0.425,0 -0.763,0.155 -1.015,0.464 -0.252,0.309 -0.378,0.839 -0.378,1.59 0,0.675 0.124,1.157 0.372,1.446 0.248,0.287 0.579,0.431 0.998,0.431 0.314,0 0.568,-0.083 0.765,-0.25 C 0.158,3.243 0.284,2.995 0.339,2.666 L 1.99,2.963 C 1.791,3.642 1.464,4.147 1.01,4.479 0.555,4.811 -0.057,4.978 -0.828,4.978 -1.77,4.978 -2.516,4.687 -3.069,4.104 -3.62,3.521 -3.896,2.708 -3.896,1.665 c 0,-1.033 0.274,-1.842 0.825,-2.426 0.549,-0.584 1.287,-0.874 2.213,-0.874 0.815,0 1.463,0.191 1.948,0.577 0.484,0.385 0.813,0.956 0.984,1.71 L 0.429,0.931 C 0.345,0.492 0.203,0.181 0,0"
             style="fill:#c9cacb;fill-opacity:1;fill-rule:nonzero;stroke:none"
             id="path102" />
        </g>
        <g
           id="g104"
           transform="translate(129.8516,343.25)">
          <path
             d="m 0,0 c -0.212,-0.135 -0.452,-0.415 -0.718,-0.84 v 0.899 h -1.553 v -6.327 h 1.673 v 1.955 c 0,1.076 0.047,1.784 0.14,2.121 0.094,0.338 0.22,0.571 0.385,0.699 0.162,0.131 0.36,0.193 0.595,0.193 0.243,0 0.505,-0.091 0.785,-0.272 l 0.519,1.458 C 1.472,0.098 1.106,0.203 0.724,0.203 0.453,0.203 0.213,0.134 0,0"
             style="fill:#c9cacb;fill-opacity:1;fill-rule:nonzero;stroke:none"
             id="path106" />
        </g>
        <path
           d="m 45.421,644.592 h 523.72 v 1.417 H 45.421 Z"
           style="fill:#c9cacb;fill-opacity:1;fill-rule:nonzero;stroke:none"
           id="path108" />
        <g
           id="g110"
           transform="translate(84.9082,657.6694)">
          <path
             d="m 0,0 c 0,-0.399 -0.02,-0.671 -0.064,-0.813 -0.063,-0.219 -0.195,-0.403 -0.398,-0.553 -0.273,-0.197 -0.559,-0.296 -0.861,-0.296 -0.27,0 -0.491,0.085 -0.665,0.255 -0.174,0.171 -0.262,0.371 -0.262,0.607 0,0.237 0.11,0.431 0.327,0.587 0.144,0.093 0.446,0.191 0.908,0.29 C -0.551,0.176 -0.212,0.261 0,0.333 Z M 1.622,-0.624 1.64,1.324 C 1.64,2.049 1.565,2.546 1.417,2.817 1.269,3.089 1.012,3.312 0.649,3.488 0.284,3.665 -0.269,3.754 -1.015,3.754 -1.834,3.754 -2.45,3.606 -2.868,3.314 -3.283,3.02 -3.575,2.57 -3.746,1.96 l 1.515,-0.274 c 0.103,0.294 0.237,0.499 0.403,0.615 0.166,0.117 0.397,0.176 0.695,0.176 0.44,0 0.738,-0.069 0.896,-0.205 C -0.079,2.134 0,1.907 0,1.585 V 1.418 C -0.3,1.293 -0.841,1.155 -1.619,1.009 -2.197,0.898 -2.641,0.768 -2.947,0.62 -3.253,0.472 -3.492,0.259 -3.662,-0.02 -3.833,-0.3 -3.917,-0.618 -3.917,-0.973 c 0,-0.539 0.186,-0.985 0.561,-1.338 0.373,-0.35 0.886,-0.527 1.534,-0.527 0.369,0 0.716,0.069 1.04,0.207 0.324,0.14 0.628,0.347 0.914,0.624 0.012,-0.032 0.033,-0.097 0.059,-0.197 0.063,-0.216 0.118,-0.38 0.16,-0.492 h 1.652 c -0.146,0.3 -0.248,0.584 -0.3,0.845 -0.055,0.264 -0.081,0.673 -0.081,1.227"
             style="fill:#c9cacb;fill-opacity:1;fill-rule:nonzero;stroke:none"
             id="path112" />
        </g>
        <g
           id="g114"
           transform="translate(90.4072,656.2139)">
          <path
             d="M 0,0 C -0.109,0 -0.205,0.028 -0.282,0.083 -0.358,0.14 -0.407,0.209 -0.43,0.294 -0.452,0.379 -0.462,0.679 -0.462,1.194 V 3.736 H 0.677 V 5.065 H -0.462 V 7.293 L -2.136,6.32 V 5.065 H -2.902 V 3.736 h 0.766 V 0.987 c 0,-0.59 0.018,-0.983 0.053,-1.175 0.044,-0.274 0.121,-0.491 0.235,-0.651 0.113,-0.16 0.29,-0.292 0.531,-0.393 0.241,-0.1 0.512,-0.15 0.813,-0.15 0.492,0 0.93,0.083 1.319,0.249 L 0.673,0.16 C 0.379,0.055 0.156,0 0,0"
             style="fill:#c9cacb;fill-opacity:1;fill-rule:nonzero;stroke:none"
             id="path116" />
        </g>
        <path
           d="m 55.077,654.974 h 1.668 v 8.706 h -1.668 z"
           style="fill:#c9cacb;fill-opacity:1;fill-rule:nonzero;stroke:none"
           id="path118" />
        <g
           id="g120"
           transform="translate(60.6689,656.2139)">
          <path
             d="M 0,0 C -0.109,0 -0.205,0.028 -0.282,0.083 -0.358,0.14 -0.407,0.209 -0.43,0.294 -0.452,0.379 -0.462,0.679 -0.462,1.194 V 3.736 H 0.677 V 5.065 H -0.462 V 7.293 L -2.136,6.32 V 5.065 H -2.902 V 3.736 h 0.766 V 0.987 c 0,-0.59 0.018,-0.983 0.053,-1.175 0.044,-0.274 0.121,-0.491 0.235,-0.651 0.113,-0.16 0.289,-0.292 0.531,-0.393 0.241,-0.1 0.512,-0.15 0.813,-0.15 0.492,0 0.93,0.083 1.319,0.249 L 0.673,0.16 C 0.379,0.055 0.156,0 0,0"
             style="fill:#c9cacb;fill-opacity:1;fill-rule:nonzero;stroke:none"
             id="path122" />
        </g>
        <g
           id="g124"
           transform="translate(79.3184,660.7158)">
          <path
             d="m 0,0 c -0.156,0.207 -0.387,0.375 -0.691,0.509 -0.304,0.131 -0.642,0.199 -1.01,0.199 -0.835,0 -1.528,-0.357 -2.079,-1.071 v 0.926 h -1.549 v -6.305 h 1.668 v 2.856 c 0,0.705 0.043,1.187 0.128,1.449 0.085,0.261 0.243,0.47 0.472,0.63 0.229,0.159 0.489,0.238 0.779,0.238 0.225,0 0.417,-0.057 0.577,-0.166 0.161,-0.112 0.278,-0.268 0.349,-0.467 0.071,-0.201 0.107,-0.641 0.107,-1.321 V -5.742 H 0.42 v 3.92 c 0,0.486 -0.031,0.859 -0.093,1.121 C 0.266,-0.44 0.156,-0.207 0,0"
             style="fill:#c9cacb;fill-opacity:1;fill-rule:nonzero;stroke:none"
             id="path126" />
        </g>
        <g
           id="g128"
           transform="translate(48.5444,658.417)">
          <path
             d="M 0,0 1.176,3.231 2.375,0 Z m 0.268,5.262 -3.392,-8.705 h 1.865 l 0.717,1.978 h 3.481 l 0.76,-1.978 H 5.612 L 2.126,5.262 Z"
             style="fill:#c9cacb;fill-opacity:1;fill-rule:nonzero;stroke:none"
             id="path130" />
        </g>
        <g
           id="g132"
           transform="translate(63.7578,658.6665)">
          <path
             d="M 0,0 C -0.004,0.456 0.114,0.817 0.351,1.081 0.588,1.346 0.888,1.48 1.253,1.48 1.593,1.48 1.883,1.354 2.12,1.103 2.357,0.852 2.481,0.485 2.493,0 Z M 3.373,1.827 C 2.83,2.447 2.09,2.757 1.152,2.757 0.316,2.757 -0.375,2.461 -0.92,1.869 -1.467,1.277 -1.741,0.458 -1.741,-0.588 c 0,-0.873 0.209,-1.599 0.624,-2.172 0.527,-0.718 1.338,-1.075 2.435,-1.075 0.693,0 1.27,0.158 1.731,0.479 0.462,0.318 0.799,0.782 1.013,1.392 L 2.398,-1.686 C 2.309,-2.002 2.173,-2.231 1.995,-2.375 1.816,-2.517 1.597,-2.588 1.336,-2.588 c -0.383,0 -0.705,0.138 -0.962,0.413 -0.258,0.274 -0.392,0.659 -0.404,1.154 H 4.151 C 4.174,0.257 3.914,1.207 3.373,1.827"
             style="fill:#c9cacb;fill-opacity:1;fill-rule:nonzero;stroke:none"
             id="path134" />
        </g>
        <g
           id="g136"
           transform="translate(71.4624,661.2207)">
          <path
             d="m 0,0 c -0.211,-0.134 -0.45,-0.414 -0.715,-0.837 v 0.896 h -1.549 v -6.306 h 1.668 v 1.948 c 0,1.072 0.047,1.777 0.14,2.113 0.093,0.337 0.219,0.571 0.383,0.698 0.162,0.13 0.359,0.193 0.594,0.193 0.241,0 0.502,-0.092 0.782,-0.272 L 1.82,-0.114 C 1.467,0.097 1.103,0.203 0.721,0.203 0.452,0.203 0.212,0.133 0,0"
             style="fill:#c9cacb;fill-opacity:1;fill-rule:nonzero;stroke:none"
             id="path138" />
        </g>
        <g
           id="g140"
           transform="translate(124.5845,656.6904)">
          <path
             d="m 0,0 c -0.294,-0.333 -0.659,-0.499 -1.095,-0.499 -0.435,0 -0.802,0.166 -1.098,0.499 -0.298,0.333 -0.446,0.811 -0.446,1.437 0,0.625 0.148,1.105 0.446,1.437 0.296,0.333 0.663,0.499 1.098,0.499 C -0.659,3.373 -0.294,3.207 0,2.874 0.296,2.542 0.444,2.065 0.444,1.449 0.444,0.815 0.296,0.333 0,0 M -1.101,4.733 C -1.719,4.733 -2.278,4.595 -2.779,4.321 -3.28,4.05 -3.667,3.652 -3.94,3.136 -4.212,2.617 -4.35,2.079 -4.35,1.526 c 0,-0.725 0.138,-1.339 0.41,-1.844 0.273,-0.505 0.672,-0.888 1.197,-1.149 0.525,-0.262 1.075,-0.392 1.655,-0.392 0.934,0 1.708,0.312 2.324,0.941 0.615,0.628 0.923,1.419 0.923,2.371 0,0.946 -0.305,1.73 -0.915,2.35 -0.61,0.62 -1.392,0.93 -2.345,0.93"
             style="fill:#c9cacb;fill-opacity:1;fill-rule:nonzero;stroke:none"
             id="path142" />
        </g>
        <path
           d="m 156.453,654.974 h 1.667 v 6.306 h -1.667 z"
           style="fill:#c9cacb;fill-opacity:1;fill-rule:nonzero;stroke:none"
           id="path144" />
        <g
           id="g146"
           transform="translate(147.1494,661.2207)">
          <path
             d="m 0,0 c -0.21,-0.134 -0.45,-0.414 -0.715,-0.837 v 0.896 h -1.549 v -6.306 h 1.668 v 1.948 c 0,1.072 0.047,1.777 0.14,2.113 0.093,0.337 0.219,0.571 0.383,0.698 0.162,0.13 0.359,0.193 0.594,0.193 0.241,0 0.502,-0.092 0.782,-0.272 L 1.82,-0.114 C 1.468,0.097 1.103,0.203 0.722,0.203 0.452,0.203 0.213,0.133 0,0"
             style="fill:#c9cacb;fill-opacity:1;fill-rule:nonzero;stroke:none"
             id="path148" />
        </g>
        <path
           d="m 156.453,662.135 h 1.667 v 1.544 h -1.667 z"
           style="fill:#c9cacb;fill-opacity:1;fill-rule:nonzero;stroke:none"
           id="path150" />
        <g
           id="g152"
           transform="translate(152.6079,658.9277)">
          <path
             d="m 0,0 c -0.89,0.203 -1.409,0.359 -1.559,0.471 -0.111,0.083 -0.166,0.182 -0.166,0.301 0,0.139 0.063,0.252 0.189,0.339 0.19,0.124 0.504,0.184 0.944,0.184 0.349,0 0.616,-0.065 0.805,-0.196 C 0.401,0.969 0.529,0.781 0.596,0.536 L 2.169,0.825 C 2.011,1.376 1.723,1.792 1.303,2.074 0.884,2.354 0.241,2.496 -0.622,2.496 -1.528,2.496 -2.197,2.309 -2.629,1.936 -3.061,1.565 -3.275,1.105 -3.275,0.56 c 0,-0.606 0.249,-1.081 0.748,-1.421 0.36,-0.245 1.214,-0.517 2.559,-0.813 0.288,-0.067 0.475,-0.139 0.558,-0.219 0.079,-0.083 0.119,-0.188 0.119,-0.316 0,-0.185 -0.072,-0.334 -0.221,-0.444 -0.217,-0.16 -0.541,-0.239 -0.972,-0.239 -0.393,0 -0.698,0.085 -0.914,0.253 -0.219,0.168 -0.363,0.416 -0.435,0.74 l -1.673,-0.255 c 0.153,-0.598 0.48,-1.073 0.981,-1.419 0.503,-0.349 1.181,-0.523 2.041,-0.523 0.946,0 1.66,0.207 2.142,0.622 0.484,0.415 0.726,0.914 0.726,1.492 0,0.529 -0.175,0.942 -0.523,1.24 C 1.508,-0.448 0.888,-0.2 0,0"
             style="fill:#c9cacb;fill-opacity:1;fill-rule:nonzero;stroke:none"
             id="path154" />
        </g>
        <g
           id="g156"
           transform="translate(163.7939,656.6904)">
          <path
             d="m 0,0 c -0.293,-0.333 -0.659,-0.499 -1.094,-0.499 -0.436,0 -0.803,0.166 -1.099,0.499 -0.298,0.333 -0.446,0.811 -0.446,1.437 0,0.625 0.148,1.105 0.446,1.437 0.296,0.333 0.663,0.499 1.099,0.499 C -0.659,3.373 -0.293,3.207 0,2.874 0.296,2.542 0.444,2.065 0.444,1.449 0.444,0.815 0.296,0.333 0,0 M -1.1,4.733 C -1.718,4.733 -2.278,4.595 -2.779,4.321 -3.279,4.05 -3.667,3.652 -3.94,3.136 -4.211,2.617 -4.349,2.079 -4.349,1.526 c 0,-0.725 0.138,-1.339 0.409,-1.844 0.273,-0.505 0.673,-0.888 1.198,-1.149 0.525,-0.262 1.075,-0.392 1.654,-0.392 0.934,0 1.709,0.312 2.325,0.941 0.614,0.628 0.922,1.419 0.922,2.371 0,0.946 -0.304,1.73 -0.914,2.35 -0.61,0.62 -1.393,0.93 -2.345,0.93"
             style="fill:#c9cacb;fill-opacity:1;fill-rule:nonzero;stroke:none"
             id="path158" />
        </g>
        <g
           id="g160"
           transform="translate(93.4966,658.6665)">
          <path
             d="M 0,0 C -0.004,0.456 0.113,0.817 0.351,1.081 0.588,1.346 0.888,1.48 1.252,1.48 1.593,1.48 1.883,1.354 2.12,1.103 2.357,0.852 2.48,0.485 2.493,0 Z m 3.373,1.827 c -0.544,0.62 -1.284,0.93 -2.222,0.93 -0.835,0 -1.526,-0.296 -2.071,-0.888 -0.548,-0.592 -0.821,-1.411 -0.821,-2.457 0,-0.873 0.209,-1.599 0.624,-2.172 0.527,-0.718 1.338,-1.075 2.434,-1.075 0.693,0 1.271,0.158 1.731,0.479 0.462,0.318 0.799,0.782 1.014,1.392 L 2.397,-1.686 C 2.308,-2.002 2.173,-2.231 1.994,-2.375 1.816,-2.517 1.597,-2.588 1.335,-2.588 c -0.382,0 -0.705,0.138 -0.962,0.413 -0.258,0.274 -0.392,0.659 -0.404,1.154 H 4.151 C 4.173,0.257 3.914,1.207 3.373,1.827"
             style="fill:#c9cacb;fill-opacity:1;fill-rule:nonzero;stroke:none"
             id="path162" />
        </g>
        <g
           id="g164"
           transform="translate(172.5767,660.7158)">
          <path
             d="m 0,0 c -0.156,0.207 -0.387,0.375 -0.691,0.509 -0.304,0.131 -0.642,0.199 -1.01,0.199 -0.835,0 -1.528,-0.357 -2.079,-1.071 v 0.926 h -1.549 v -6.305 h 1.668 v 2.856 c 0,0.705 0.043,1.187 0.128,1.449 0.085,0.261 0.243,0.47 0.472,0.63 0.229,0.159 0.489,0.238 0.779,0.238 0.225,0 0.417,-0.057 0.577,-0.166 0.161,-0.112 0.278,-0.268 0.349,-0.467 0.071,-0.201 0.107,-0.641 0.107,-1.321 v -3.219 h 1.668 v 3.92 c 0,0.486 -0.03,0.859 -0.093,1.121 C 0.266,-0.44 0.156,-0.207 0,0"
             style="fill:#c9cacb;fill-opacity:1;fill-rule:nonzero;stroke:none"
             id="path166" />
        </g>
        <g
           id="g168"
           transform="translate(109.7275,656.6904)">
          <path
             d="m 0,0 c -0.294,-0.333 -0.659,-0.499 -1.095,-0.499 -0.435,0 -0.802,0.166 -1.098,0.499 -0.298,0.333 -0.446,0.811 -0.446,1.437 0,0.625 0.148,1.105 0.446,1.437 0.296,0.333 0.663,0.499 1.098,0.499 C -0.659,3.373 -0.294,3.207 0,2.874 0.296,2.542 0.444,2.065 0.444,1.449 0.444,0.815 0.296,0.333 0,0 M -1.101,4.733 C -1.719,4.733 -2.278,4.595 -2.779,4.321 -3.279,4.05 -3.667,3.652 -3.94,3.136 -4.212,2.617 -4.35,2.079 -4.35,1.526 c 0,-0.725 0.138,-1.339 0.41,-1.844 0.273,-0.505 0.673,-0.888 1.198,-1.149 0.525,-0.262 1.074,-0.392 1.654,-0.392 0.934,0 1.708,0.312 2.324,0.941 0.615,0.628 0.923,1.419 0.923,2.371 0,0.946 -0.305,1.73 -0.914,2.35 -0.611,0.62 -1.393,0.93 -2.346,0.93"
             style="fill:#c9cacb;fill-opacity:1;fill-rule:nonzero;stroke:none"
             id="path170" />
        </g>
        <path
           d="m 102.386,654.974 h 1.668 v 8.706 h -1.668 z"
           style="fill:#c9cacb;fill-opacity:1;fill-rule:nonzero;stroke:none"
           id="path172" />
        <g
           id="g174"
           transform="translate(116.9106,656.7998)">
          <path
             d="m 0,0 c -0.282,-0.318 -0.626,-0.479 -1.034,-0.479 -0.381,0 -0.699,0.157 -0.958,0.467 -0.26,0.31 -0.389,0.801 -0.389,1.47 0,0.638 0.129,1.11 0.389,1.422 0.259,0.31 0.588,0.467 0.989,0.467 0.411,0 0.752,-0.159 1.019,-0.477 C 0.286,2.554 0.422,2.069 0.422,1.417 0.422,0.791 0.28,0.318 0,0 m 0.499,3.596 c -0.507,0.685 -1.152,1.028 -1.93,1.028 -0.756,0 -1.388,-0.281 -1.897,-0.838 -0.509,-0.559 -0.764,-1.366 -0.764,-2.424 0,-0.843 0.195,-1.547 0.581,-2.114 0.495,-0.715 1.166,-1.074 2.013,-1.074 0.76,0 1.391,0.34 1.889,1.021 v -0.92 c 0,-0.373 -0.026,-0.628 -0.077,-0.766 -0.075,-0.195 -0.186,-0.334 -0.333,-0.422 -0.218,-0.131 -0.544,-0.196 -0.98,-0.196 -0.339,0 -0.59,0.059 -0.748,0.178 -0.113,0.083 -0.187,0.235 -0.219,0.458 l -1.906,0.231 c -0.003,-0.079 -0.005,-0.146 -0.005,-0.202 0,-0.562 0.222,-1.026 0.67,-1.393 0.446,-0.365 1.205,-0.549 2.275,-0.549 0.565,0 1.033,0.061 1.404,0.178 0.369,0.12 0.665,0.284 0.888,0.493 0.221,0.211 0.393,0.498 0.515,0.867 0.124,0.369 0.185,0.925 0.185,1.668 V 4.479 H 0.499 Z"
             style="fill:#c9cacb;fill-opacity:1;fill-rule:nonzero;stroke:none"
             id="path176" />
        </g>
        <g
           id="g178"
           transform="translate(139.4453,658.6665)">
          <path
             d="M 0,0 C -0.004,0.456 0.113,0.817 0.351,1.081 0.588,1.346 0.888,1.48 1.253,1.48 1.593,1.48 1.883,1.354 2.12,1.103 2.357,0.852 2.481,0.485 2.493,0 Z M 3.373,1.827 C 2.83,2.447 2.09,2.757 1.151,2.757 0.316,2.757 -0.375,2.461 -0.92,1.869 -1.467,1.277 -1.741,0.458 -1.741,-0.588 c 0,-0.873 0.209,-1.599 0.624,-2.172 0.527,-0.718 1.338,-1.075 2.435,-1.075 0.693,0 1.27,0.158 1.73,0.479 0.463,0.318 0.799,0.782 1.014,1.392 L 2.398,-1.686 C 2.309,-2.002 2.173,-2.231 1.995,-2.375 1.816,-2.517 1.597,-2.588 1.336,-2.588 c -0.383,0 -0.706,0.138 -0.963,0.413 -0.257,0.274 -0.391,0.659 -0.403,1.154 H 4.151 C 4.173,0.257 3.914,1.207 3.373,1.827"
             style="fill:#c9cacb;fill-opacity:1;fill-rule:nonzero;stroke:none"
             id="path180" />
        </g>
        <g
           id="g182"
           transform="translate(134.2544,658.0605)">
          <path
             d="M 0,0 C -0.063,-0.176 -0.122,-0.354 -0.178,-0.533 -0.201,-0.62 -0.259,-0.801 -0.351,-1.074 L -0.695,0 -1.883,3.219 h -1.751 l 2.542,-6.306 H 0.41 L 2.917,3.219 H 1.2 Z"
             style="fill:#c9cacb;fill-opacity:1;fill-rule:nonzero;stroke:none"
             id="path184" />
        </g>
        <path
           d="m 45.421,960.68 h 523.72 v 1.417 H 45.421 Z"
           style="fill:#c9cacb;fill-opacity:1;fill-rule:nonzero;stroke:none"
           id="path186" />
        <g
           id="g188"
           transform="translate(74.0654,978.7148)">
          <path
             d="m 0,0 c -0.375,0.221 -0.835,0.332 -1.376,0.332 -0.427,0 -0.828,-0.097 -1.203,-0.292 -0.375,-0.194 -0.726,-0.488 -1.048,-0.882 -0.224,0.394 -0.508,0.688 -0.857,0.882 -0.347,0.195 -0.757,0.292 -1.229,0.292 -0.89,0 -1.659,-0.392 -2.302,-1.174 v 1.006 h -1.8 v -7.382 h 1.952 v 3.588 c 0,0.709 0.052,1.214 0.157,1.521 0.104,0.306 0.277,0.541 0.519,0.702 0.24,0.164 0.511,0.244 0.812,0.244 0.251,0 0.448,-0.052 0.595,-0.154 0.145,-0.102 0.255,-0.256 0.323,-0.465 0.069,-0.209 0.104,-0.671 0.104,-1.39 V -7.218 H -3.4 v 3.545 c 0,0.695 0.055,1.203 0.161,1.526 0.107,0.323 0.281,0.567 0.52,0.733 0.242,0.168 0.498,0.251 0.774,0.251 0.374,0 0.652,-0.14 0.832,-0.417 0.135,-0.214 0.202,-0.686 0.202,-1.419 v -4.219 h 1.953 v 4.719 c 0,0.705 -0.066,1.215 -0.202,1.531 C 0.655,-0.543 0.375,-0.218 0,0"
             style="fill:#c9cacb;fill-opacity:1;fill-rule:nonzero;stroke:none"
             id="path190" />
        </g>
        <g
           id="g192"
           transform="translate(81.1265,974.6533)">
          <path
             d="m 0,0 c 0,-0.468 -0.024,-0.786 -0.076,-0.952 -0.073,-0.256 -0.228,-0.472 -0.465,-0.648 -0.32,-0.23 -0.655,-0.346 -1.008,-0.346 -0.316,0 -0.575,0.099 -0.779,0.299 -0.204,0.199 -0.306,0.434 -0.306,0.71 0,0.277 0.129,0.505 0.382,0.687 0.169,0.109 0.523,0.224 1.063,0.34 0.543,0.116 0.94,0.216 1.189,0.299 z m 1.898,-0.731 0.021,2.28 c 0,0.849 -0.087,1.43 -0.261,1.749 C 1.485,3.615 1.184,3.876 0.759,4.083 0.332,4.29 -0.316,4.394 -1.189,4.394 -2.147,4.394 -2.869,4.221 -3.357,3.879 -3.844,3.535 -4.186,3.008 -4.385,2.294 l 1.773,-0.32 c 0.121,0.344 0.277,0.584 0.471,0.718 0.195,0.138 0.466,0.207 0.815,0.207 0.514,0 0.863,-0.081 1.048,-0.24 C -0.093,2.498 0,2.232 0,1.855 V 1.661 C -0.351,1.514 -0.985,1.352 -1.896,1.181 -2.572,1.051 -3.092,0.899 -3.45,0.726 -3.808,0.553 -4.088,0.303 -4.287,-0.024 c -0.2,-0.328 -0.299,-0.7 -0.299,-1.115 0,-0.631 0.218,-1.153 0.657,-1.566 0.436,-0.411 1.036,-0.617 1.796,-0.617 0.432,0 0.837,0.081 1.217,0.242 0.38,0.164 0.735,0.406 1.07,0.731 C 0.168,-2.387 0.192,-2.463 0.223,-2.58 0.296,-2.833 0.36,-3.025 0.41,-3.156 h 1.934 c -0.171,0.351 -0.289,0.683 -0.351,0.989 -0.064,0.309 -0.095,0.788 -0.095,1.436"
             style="fill:#c9cacb;fill-opacity:1;fill-rule:nonzero;stroke:none"
             id="path194" />
        </g>
        <g
           id="g196"
           transform="translate(57.4692,978.8096)">
          <path
             d="M 0,0 C -0.247,-0.157 -0.527,-0.484 -0.837,-0.979 V 0.069 H -2.65 v -7.381 h 1.953 v 2.28 c 0,1.255 0.054,2.08 0.163,2.474 0.109,0.394 0.256,0.667 0.449,0.817 0.189,0.152 0.419,0.225 0.694,0.225 0.283,0 0.589,-0.107 0.916,-0.318 L 2.13,-0.133 C 1.718,0.114 1.291,0.237 0.845,0.237 0.529,0.237 0.249,0.157 0,0"
             style="fill:#c9cacb;fill-opacity:1;fill-rule:nonzero;stroke:none"
             id="path198" />
        </g>
        <path
           d="m 60.442,971.497 h 1.953 v 7.382 h -1.953 z"
           style="fill:#c9cacb;fill-opacity:1;fill-rule:nonzero;stroke:none"
           id="path200" />
        <g
           id="g202"
           transform="translate(50.873,977.7324)">
          <path
             d="M 0,0 C -0.156,-0.228 -0.37,-0.394 -0.643,-0.5 -0.916,-0.607 -1.459,-0.659 -2.27,-0.659 H -3.395 V 2.23 h 0.994 c 0.74,0 1.234,-0.021 1.481,-0.068 C -0.588,2.103 -0.311,1.951 -0.095,1.711 0.124,1.469 0.233,1.163 0.233,0.792 0.233,0.491 0.154,0.228 0,0 m 0.294,3.801 c -0.379,0.102 -1.195,0.154 -2.446,0.154 h -3.3 v -10.19 h 2.057 v 3.843 h 1.341 c 0.932,0 1.644,0.05 2.135,0.148 0.36,0.078 0.716,0.239 1.065,0.481 0.352,0.244 0.639,0.579 0.866,1.006 0.228,0.425 0.342,0.952 0.342,1.578 0,0.809 -0.197,1.471 -0.591,1.984 C 1.369,3.317 0.878,3.649 0.294,3.801"
             style="fill:#c9cacb;fill-opacity:1;fill-rule:nonzero;stroke:none"
             id="path204" />
        </g>
        <path
           d="m 60.442,979.88 h 1.953 v 1.808 h -1.953 z"
           style="fill:#c9cacb;fill-opacity:1;fill-rule:nonzero;stroke:none"
           id="path206" />
        <g
           id="g208"
           transform="translate(110.9785,973.5068)">
          <path
             d="m 0,0 c -0.344,-0.389 -0.771,-0.583 -1.281,-0.583 -0.511,0 -0.94,0.194 -1.286,0.583 -0.349,0.389 -0.522,0.949 -0.522,1.682 0,0.731 0.173,1.294 0.522,1.683 0.346,0.388 0.775,0.583 1.286,0.583 0.51,0 0.937,-0.195 1.281,-0.583 C 0.346,2.976 0.52,2.418 0.52,1.697 0.52,0.954 0.346,0.389 0,0 M -1.289,5.54 C -2.012,5.54 -2.667,5.379 -3.253,5.059 -3.839,4.741 -4.292,4.275 -4.613,3.67 -4.93,3.063 -5.092,2.434 -5.092,1.787 c 0,-0.85 0.162,-1.569 0.479,-2.159 0.321,-0.591 0.788,-1.04 1.403,-1.346 0.614,-0.306 1.257,-0.458 1.936,-0.458 1.094,0 2,0.365 2.721,1.101 0.719,0.736 1.08,1.661 1.08,2.776 0,1.109 -0.356,2.024 -1.07,2.75 -0.715,0.726 -1.63,1.089 -2.746,1.089"
             style="fill:#c9cacb;fill-opacity:1;fill-rule:nonzero;stroke:none"
             id="path210" />
        </g>
        <g
           id="g212"
           transform="translate(119.3867,973.6353)">
          <path
             d="m 0,0 c -0.33,-0.373 -0.733,-0.56 -1.21,-0.56 -0.446,0 -0.819,0.183 -1.122,0.545 -0.304,0.364 -0.456,0.937 -0.456,1.721 0,0.747 0.152,1.3 0.456,1.665 0.303,0.363 0.688,0.546 1.158,0.546 0.481,0 0.88,-0.185 1.193,-0.558 C 0.334,2.989 0.494,2.422 0.494,1.658 0.494,0.925 0.328,0.373 0,0 M 0.584,4.208 C -0.009,5.011 -0.764,5.412 -1.675,5.412 -2.56,5.412 -3.3,5.084 -3.896,4.432 -4.491,3.777 -4.791,2.833 -4.791,1.594 c 0,-0.987 0.229,-1.81 0.682,-2.474 0.579,-0.838 1.364,-1.258 2.356,-1.258 0.889,0 1.628,0.399 2.211,1.196 v -1.077 c 0,-0.437 -0.031,-0.736 -0.09,-0.897 C 0.28,-3.144 0.149,-3.308 -0.021,-3.41 -0.277,-3.564 -0.66,-3.64 -1.17,-3.64 c -0.396,0 -0.69,0.069 -0.875,0.209 -0.133,0.098 -0.218,0.275 -0.256,0.536 l -2.231,0.27 c -0.005,-0.092 -0.007,-0.17 -0.007,-0.237 0,-0.657 0.261,-1.2 0.786,-1.63 0.522,-0.426 1.409,-0.642 2.662,-0.642 0.662,0 1.21,0.071 1.644,0.208 0.432,0.14 0.778,0.332 1.039,0.577 0.259,0.246 0.46,0.584 0.603,1.016 0.144,0.431 0.216,1.082 0.216,1.952 V 5.244 H 0.584 Z"
             style="fill:#c9cacb;fill-opacity:1;fill-rule:nonzero;stroke:none"
             id="path214" />
        </g>
        <g
           id="g216"
           transform="translate(128.3691,973.5068)">
          <path
             d="m 0,0 c -0.344,-0.389 -0.771,-0.583 -1.281,-0.583 -0.51,0 -0.94,0.194 -1.286,0.583 -0.349,0.389 -0.522,0.949 -0.522,1.682 0,0.731 0.173,1.294 0.522,1.683 0.346,0.388 0.776,0.583 1.286,0.583 0.51,0 0.937,-0.195 1.281,-0.583 C 0.347,2.976 0.52,2.418 0.52,1.697 0.52,0.954 0.347,0.389 0,0 M -1.288,5.54 C -2.012,5.54 -2.667,5.379 -3.252,5.059 -3.839,4.741 -4.292,4.275 -4.612,3.67 -4.93,3.063 -5.091,2.434 -5.091,1.787 c 0,-0.85 0.161,-1.569 0.479,-2.159 0.32,-0.591 0.788,-1.04 1.402,-1.346 0.615,-0.306 1.257,-0.458 1.936,-0.458 1.094,0 2,0.365 2.721,1.101 0.72,0.736 1.08,1.661 1.08,2.776 0,1.109 -0.356,2.024 -1.07,2.75 -0.714,0.726 -1.63,1.089 -2.745,1.089"
             style="fill:#c9cacb;fill-opacity:1;fill-rule:nonzero;stroke:none"
             id="path218" />
        </g>
        <g
           id="g220"
           transform="translate(89.667,978.668)">
          <path
             d="M 0,0 0.003,0.009 C 0,0.01 -0.002,0.011 -0.005,0.012 Z"
             style="fill:#c9cacb;fill-opacity:1;fill-rule:nonzero;stroke:none"
             id="path222" />
        </g>
        <g
           id="g224"
           transform="translate(88.3843,979.0469)">
          <path
             d="m 0,0 c -0.316,0 -0.596,-0.081 -0.845,-0.237 -0.246,-0.157 -0.526,-0.484 -0.837,-0.98 v 1.049 H -3.495 V -7.55 h 1.953 v 2.28 c 0,1.256 0.054,2.081 0.163,2.475 0.109,0.394 0.256,0.667 0.449,0.816 0.19,0.152 0.42,0.226 0.695,0.226 0.282,0 0.588,-0.107 0.916,-0.318 l 0.602,1.692 -0.005,0.012 C 0.868,-0.123 0.443,0 0,0"
             style="fill:#c9cacb;fill-opacity:1;fill-rule:nonzero;stroke:none"
             id="path226" />
        </g>
        <path
           d="m 102.385,971.497 h 1.953 v 10.19 h -1.953 z"
           style="fill:#c9cacb;fill-opacity:1;fill-rule:nonzero;stroke:none"
           id="path228" />
        <g
           id="g230"
           transform="translate(93.4307,973.6372)">
          <path
             d="M 0,0 -1.765,5.242 H -3.844 L -3.769,5.043 C -3.766,5.042 -3.763,5.041 -3.761,5.04 l -0.003,-0.009 2.729,-7.192 c -0.116,-0.413 -0.284,-0.752 -0.5,-1.018 -0.218,-0.266 -0.555,-0.399 -1.008,-0.399 -0.247,0 -0.522,0.029 -0.828,0.091 l 0.173,-1.531 c 0.363,-0.078 0.731,-0.118 1.105,-0.118 0.373,0 0.705,0.04 0.999,0.118 0.295,0.079 0.541,0.19 0.743,0.33 0.202,0.142 0.38,0.325 0.536,0.553 0.154,0.228 0.318,0.557 0.489,0.987 l 0.467,1.286 2.606,7.104 H 1.725 Z"
             style="fill:#c9cacb;fill-opacity:1;fill-rule:nonzero;stroke:none"
             id="path232" />
        </g>
      </g>
    </g>
    <g
       id="g3534"
       inkscape:export-filename="../../Projects/deno_projects/inotify/static/logo-slate.png"
       inkscape:export-xdpi="96"
       inkscape:export-ydpi="96">
      <g
         id="g1826">
        <g
           id="g1828">
          <g
             id="g1834">
            <g
               id="g1836">
              <path
                 d="m 349.798,524.521 c -1.704,-4.002 -4.185,-7.567 -6.634,-11.164 v 0 c -4.033,-5.954 -7.939,-12.063 -7.939,-20.621 v 0 c 0,-15.226 -12.342,-27.599 -27.567,-27.599 v 0 c -15.227,0 -27.6,12.373 -27.6,27.599 v 0 c 0,8.558 -3.875,14.667 -7.906,20.621 v 0 c -2.452,3.597 -4.932,7.162 -6.637,11.164 v 0 c -2.852,6.728 -3.441,14.698 2.202,26.357 v 0 c -13.86,-14.698 -21.986,-32.157 -12.123,-58.142 v 0 c 0,-28.746 23.318,-52.065 52.064,-52.065 v 0 c 28.747,0 52.033,23.319 52.033,52.065 v 0 c 9.891,25.985 1.768,43.444 -12.125,58.142 v 0 c 5.674,-11.659 5.055,-19.629 2.232,-26.357"
                 style="fill:url(#linearGradient1844);stroke:none"
                 id="path1846" />
            </g>
          </g>
        </g>
      </g>
      <g
         id="g1848">
        <g
           id="g1850">
          <g
             id="g1856">
            <g
               id="g1858">
              <path
                 d="m 349.798,524.521 c -1.704,-4.002 -4.185,-7.567 -6.634,-11.164 v 0 c -0.186,-0.249 4.713,-15.319 4.713,-20.621 v 0 c 0,-22.234 -18.018,-40.22 -40.219,-40.22 v 0 c -22.235,0 -40.219,17.986 -40.219,40.22 v 0 c 0,5.302 4.867,20.372 4.713,20.621 v 0 c -2.452,3.597 -4.932,7.162 -6.637,11.164 v 0 c -2.852,6.728 -3.441,14.698 2.202,26.357 v 0 c -13.86,-14.698 -21.986,-32.157 -12.123,-58.142 v 0 c 0,-28.746 23.318,-52.065 52.064,-52.065 v 0 c 28.747,0 52.033,23.319 52.033,52.065 v 0 c 9.891,25.985 1.768,43.444 -12.125,58.142 v 0 c 5.674,-11.659 5.055,-19.629 2.232,-26.357"
                 style="fill:url(#linearGradient1866);stroke:none"
                 id="path1868" />
            </g>
          </g>
        </g>
      </g>
      <g
         id="g1870">
        <g
           id="g1872">
          <g
             id="g1878">
            <g
               id="g1880">
              <path
                 d="m 349.798,524.521 c 5.799,-9.273 9.893,-19.257 9.893,-31.785 v 0 c 9.891,25.985 1.768,43.444 -12.125,58.142 v 0 c 5.674,-11.659 5.055,-19.629 2.232,-26.357"
                 style="fill:url(#linearGradient1888);stroke:none"
                 id="path1890" />
            </g>
          </g>
        </g>
      </g>
      <g
         id="g1892">
        <g
           id="g1894">
          <g
             id="g1900">
            <g
               id="g1902">
              <path
                 d="m 349.798,524.521 c 2.575,-4.126 4.839,-8.373 6.513,-12.963 v 0 c 3.968,12.156 2.419,25.087 -8.745,39.32 v 0 c 5.674,-11.659 5.055,-19.629 2.232,-26.357"
                 style="fill:url(#linearGradient1910);stroke:none"
                 id="path1912" />
            </g>
          </g>
        </g>
      </g>
      <g
         id="g1914">
        <g
           id="g1916">
          <g
             id="g1922">
            <g
               id="g1924">
              <path
                 d="m 349.798,524.521 c -4.495,-10.575 -14.573,-18.017 -14.573,-31.785 v 0 c 1.302,11.907 10.731,20.342 15.318,30.543 v 0 c 3.35,7.35 4.341,15.288 -2.977,27.599 v 0 c 5.674,-11.659 5.055,-19.629 2.232,-26.357"
                 style="fill:url(#radialGradient1932);stroke:none"
                 id="path1934" />
            </g>
          </g>
        </g>
      </g>
      <g
         id="g1936">
        <g
           id="g1938">
          <g
             id="g1944">
            <g
               id="g1946">
              <path
                 d="m 255.594,492.736 c 0,12.528 4.093,22.512 9.892,31.785 v 0 c -2.825,6.728 -3.444,14.698 2.231,26.357 v 0 C 253.826,536.18 245.701,518.721 255.594,492.736"
                 style="fill:url(#linearGradient1954);stroke:none"
                 id="path1956" />
            </g>
          </g>
        </g>
      </g>
      <g
         id="g1958">
        <g
           id="g1960">
          <g
             id="g1966">
            <g
               id="g1968">
              <path
                 d="m 258.972,511.558 c 1.674,4.59 3.938,8.837 6.514,12.963 v 0 c -2.825,6.728 -3.444,14.698 2.231,26.357 v 0 c -11.163,-14.233 -12.714,-27.164 -8.745,-39.32"
                 style="fill:url(#linearGradient1976);stroke:none"
                 id="path1978" />
            </g>
          </g>
        </g>
      </g>
      <g
         id="g1980">
        <g
           id="g1982">
          <g
             id="g1988">
            <g
               id="g1990">
              <path
                 d="m 264.74,523.279 c 4.589,-10.201 14.017,-18.636 15.318,-30.543 v 0 c 0,13.768 -10.078,21.21 -14.572,31.785 v 0 c -2.825,6.728 -3.444,14.698 2.231,26.357 v 0 c -7.319,-12.311 -6.325,-20.249 -2.977,-27.599"
                 style="fill:url(#radialGradient1998);stroke:none"
                 id="path2000" />
            </g>
          </g>
        </g>
      </g>
      <g
         id="g2002">
        <g
           id="g2004">
          <g
             id="g2010">
            <g
               id="g2012">
              <path
                 d="m 314.232,539.436 c 5.954,-16.157 20.993,-29.924 20.993,-46.7 v 0 c 0,13.768 10.078,21.21 14.573,31.785 v 0 c -2.044,3.255 -4.278,6.387 -6.634,9.519 v 0 c -7.039,-6.574 -19.289,-0.868 -16.807,22.544 v 0 c -1.613,2.449 -3.163,4.961 -4.622,7.597 v 0 c -5.147,9.303 -6.139,19.939 -7.194,33.087 v 0 c -6.358,-19.846 -7.162,-39.351 -0.309,-57.832"
                 style="fill:url(#linearGradient2020);stroke:none"
                 id="path2022" />
            </g>
          </g>
        </g>
      </g>
      <g
         id="g2024">
        <g
           id="g2026">
          <g
             id="g2032">
            <g
               id="g2034">
              <path
                 d="m 321.735,564.181 c 1.459,-2.636 3.009,-5.148 4.622,-7.597 v 0 c 0.557,5.551 1.985,12.093 4.495,19.722 v 0 c -3.751,-3.1 -6.821,-7.287 -9.117,-12.125"
                 style="fill:url(#radialGradient2042);stroke:none"
                 id="path2044" />
            </g>
          </g>
        </g>
      </g>
      <g
         id="g2046">
        <g
           id="g2048">
          <g
             id="g2054">
            <g
               id="g2056">
              <path
                 d="m 343.164,534.04 c 2.356,-3.132 4.59,-6.264 6.634,-9.519 v 0 c 2.823,6.728 3.442,14.698 -2.232,26.357 v 0 c 1.054,-7.939 -1.116,-13.737 -4.402,-16.838"
                 style="fill:url(#radialGradient2064);stroke:none"
                 id="path2066" />
            </g>
          </g>
        </g>
      </g>
      <g
         id="g2068">
        <g
           id="g2070">
          <g
             id="g2076">
            <g
               id="g2078">
              <path
                 d="m 326.357,556.584 c -2.482,-23.412 9.768,-29.118 16.807,-22.544 v 0 c -5.582,10.356 -16.807,22.544 -12.312,42.266 v 0 c -2.51,-7.629 -3.938,-14.171 -4.495,-19.722"
                 style="fill:url(#radialGradient2086);stroke:none"
                 id="path2088" />
            </g>
          </g>
        </g>
      </g>
      <g
         id="g2090">
        <g
           id="g2092">
          <g
             id="g2098">
            <g
               id="g2100">
              <path
                 d="m 326.357,556.584 c 5.301,-8.063 11.348,-15.257 16.807,-22.544 v 0 c -5.582,10.356 -16.807,22.544 -12.312,42.266 v 0 c -2.51,-7.629 -3.938,-14.171 -4.495,-19.722"
                 style="fill:url(#radialGradient2108);stroke:none"
                 id="path2110" />
            </g>
          </g>
        </g>
      </g>
      <g
         id="g2112">
        <g
           id="g2114">
          <g
             id="g2120">
            <g
               id="g2122">
              <path
                 d="m 335.225,492.736 c 0,13.768 10.078,21.21 14.573,31.785 v 0 c -1.208,1.89 -2.448,3.751 -3.751,5.581 v 0 c -1.674,-13.923 -11.381,-17.892 -10.822,-37.366"
                 style="fill:url(#radialGradient2130);stroke:none"
                 id="path2132" />
            </g>
          </g>
        </g>
      </g>
      <g
         id="g2134">
        <g
           id="g2136">
          <g
             id="g2142">
            <g
               id="g2144">
              <path
                 d="m 342.851,533.792 c -7.068,-6.171 -18.945,-0.279 -16.494,22.792 v 0 c -1.613,2.449 -3.163,4.961 -4.622,7.597 v 0 c -1.766,-33.242 14.39,-39.01 21.116,-30.389"
                 style="fill:url(#radialGradient2152);stroke:none"
                 id="path2154" />
            </g>
          </g>
        </g>
      </g>
      <g
         id="g2156">
        <g
           id="g2158">
          <g
             id="g2164">
            <g
               id="g2166">
              <path
                 d="m 326.357,556.584 c -2.326,-21.987 8.34,-28.374 15.473,-23.599 v 0 c -6.483,-3.41 -15.722,3.319 -14.822,22.607 v 0 c 0.248,5.768 1.425,12.651 3.844,20.714 v 0 c -2.51,-7.629 -3.938,-14.171 -4.495,-19.722"
                 style="fill:url(#radialGradient2174);stroke:none"
                 id="path2176" />
            </g>
          </g>
        </g>
      </g>
      <g
         id="g2178">
        <g
           id="g2180">
          <g
             id="g2186">
            <g
               id="g2188">
              <path
                 d="m 293.548,564.181 c -1.457,-2.636 -3.007,-5.148 -4.621,-7.597 v 0 c 2.48,-23.412 -9.769,-29.118 -16.807,-22.544 v 0 c -2.357,-3.132 -4.59,-6.264 -6.634,-9.519 v 0 c 4.494,-10.575 14.572,-18.017 14.572,-31.785 v 0 c 0,16.776 15.039,30.543 20.992,46.7 v 0 c 6.854,18.481 6.05,37.986 -0.309,57.832 v 0 c -1.054,-13.148 -2.046,-23.784 -7.193,-33.087"
                 style="fill:url(#linearGradient2196);stroke:none"
                 id="path2198" />
            </g>
          </g>
        </g>
      </g>
      <g
         id="g2200">
        <g
           id="g2202">
          <g
             id="g2208">
            <g
               id="g2210">
              <path
                 d="m 288.927,556.584 c 1.614,2.449 3.164,4.961 4.621,7.597 v 0 c -2.295,4.838 -5.365,9.025 -9.117,12.125 v 0 c 2.512,-7.629 3.938,-14.171 4.496,-19.722"
                 style="fill:url(#radialGradient2218);stroke:none"
                 id="path2220" />
            </g>
          </g>
        </g>
      </g>
      <g
         id="g2222">
        <g
           id="g2224">
          <g
             id="g2230">
            <g
               id="g2232">
              <path
                 d="m 265.486,524.521 c 2.044,3.255 4.277,6.387 6.634,9.519 v 0 c -3.286,3.101 -5.456,8.899 -4.401,16.838 v 0 c -5.677,-11.659 -5.058,-19.629 -2.233,-26.357"
                 style="fill:url(#radialGradient2240);stroke:none"
                 id="path2242" />
            </g>
          </g>
        </g>
      </g>
      <g
         id="g2244">
        <g
           id="g2246">
          <g
             id="g2252">
            <g
               id="g2254">
              <path
                 d="m 272.12,534.04 c 7.038,-6.574 19.287,-0.868 16.807,22.544 v 0 c -0.558,5.551 -1.984,12.093 -4.496,19.722 v 0 c 4.496,-19.722 -6.731,-31.91 -12.311,-42.266"
                 style="fill:url(#radialGradient2262);stroke:none"
                 id="path2264" />
            </g>
          </g>
        </g>
      </g>
      <g
         id="g2266">
        <g
           id="g2268">
          <g
             id="g2274">
            <g
               id="g2276">
              <path
                 d="m 272.12,534.04 c 5.458,7.287 11.504,14.481 16.807,22.544 v 0 c -0.558,5.551 -1.984,12.093 -4.496,19.722 v 0 c 4.496,-19.722 -6.731,-31.91 -12.311,-42.266"
                 style="fill:url(#radialGradient2284);stroke:none"
                 id="path2286" />
            </g>
          </g>
        </g>
      </g>
      <g
         id="g2288">
        <g
           id="g2290">
          <g
             id="g2296">
            <g
               id="g2298">
              <path
                 d="m 265.486,524.521 c 4.494,-10.575 14.572,-18.017 14.572,-31.785 v 0 c 0.558,19.474 -9.146,23.443 -10.822,37.366 v 0 c -1.303,-1.83 -2.543,-3.691 -3.75,-5.581"
                 style="fill:url(#radialGradient2306);stroke:none"
                 id="path2308" />
            </g>
          </g>
        </g>
      </g>
      <g
         id="g2310">
        <g
           id="g2312">
          <g
             id="g2318">
            <g
               id="g2320">
              <path
                 d="m 288.927,556.584 c 2.45,-23.071 -9.426,-28.963 -16.496,-22.792 v 0 c 6.727,-8.621 22.883,-2.853 21.117,30.389 v 0 c -1.457,-2.636 -3.007,-5.148 -4.621,-7.597"
                 style="fill:url(#radialGradient2328);stroke:none"
                 id="path2330" />
            </g>
          </g>
        </g>
      </g>
      <g
         id="g2332">
        <g
           id="g2334">
          <g
             id="g2340">
            <g
               id="g2342">
              <path
                 d="m 288.277,555.592 c 0.898,-19.288 -8.342,-26.017 -14.825,-22.607 v 0 c 7.134,-4.775 17.801,1.612 15.475,23.599 v 0 c -0.558,5.551 -1.984,12.093 -4.496,19.722 v 0 c 2.418,-8.063 3.598,-14.946 3.846,-20.714"
                 style="fill:url(#radialGradient2350);stroke:none"
                 id="path2352" />
            </g>
          </g>
        </g>
      </g>
    </g>
  </g>
</svg>
