<?xml version="1.0" encoding="UTF-8" standalone="no"?>
<!-- Created with Inkscape (http://www.inkscape.org/) -->

<svg
   version="1.1"
   id="svg2"
   width="191.1662"
   height="245.6344"
   viewBox="0 0 191.1662 245.63439"
   sodipodi:docname="Fireball - Logo Template.ai"
   xmlns:inkscape="http://www.inkscape.org/namespaces/inkscape"
   xmlns:sodipodi="http://sodipodi.sourceforge.net/DTD/sodipodi-0.dtd"
   xmlns="http://www.w3.org/2000/svg"
   xmlns:svg="http://www.w3.org/2000/svg">
  <defs
     id="defs6">
    <linearGradient
       x1="0"
       y1="0"
       x2="1"
       y2="0"
       gradientUnits="userSpaceOnUse"
       gradientTransform="matrix(-8.8e-6,201.2473,201.2473,8.8e-6,463.30469,41.118164)"
       spreadMethod="pad"
       id="linearGradient1308">
      <stop
         style="stop-opacity:1;stop-color:#ffffff"
         offset="0"
         id="stop1302" />
      <stop
         style="stop-opacity:1;stop-color:#32b1e7"
         offset="0.5"
         id="stop1304" />
      <stop
         style="stop-opacity:1;stop-color:#323390"
         offset="1"
         id="stop1306" />
    </linearGradient>
    <linearGradient
       x1="0"
       y1="0"
       x2="1"
       y2="0"
       gradientUnits="userSpaceOnUse"
       gradientTransform="matrix(-5.7e-6,130.09306,130.09306,5.7e-6,463.30469,80.942383)"
       spreadMethod="pad"
       id="linearGradient1330">
      <stop
         style="stop-opacity:1;stop-color:#ffffff"
         offset="0"
         id="stop1324" />
      <stop
         style="stop-opacity:1;stop-color:#32b1e7"
         offset="0.5"
         id="stop1326" />
      <stop
         style="stop-opacity:1;stop-color:#323390"
         offset="1"
         id="stop1328" />
    </linearGradient>
    <linearGradient
       x1="0"
       y1="0"
       x2="1"
       y2="0"
       gradientUnits="userSpaceOnUse"
       gradientTransform="matrix(-66.790932,-132.32741,-132.32741,66.790932,531.76758,230.80176)"
       spreadMethod="pad"
       id="linearGradient1352">
      <stop
         style="stop-opacity:1;stop-color:#ffffff"
         offset="0"
         id="stop1346" />
      <stop
         style="stop-opacity:1;stop-color:#32b1e7"
         offset="0.5"
         id="stop1348" />
      <stop
         style="stop-opacity:1;stop-color:#323390"
         offset="1"
         id="stop1350" />
    </linearGradient>
    <linearGradient
       x1="0"
       y1="0"
       x2="1"
       y2="0"
       gradientUnits="userSpaceOnUse"
       gradientTransform="matrix(-19.056963,-82.072128,-82.072128,19.056963,509.63379,210.79297)"
       spreadMethod="pad"
       id="linearGradient1374">
      <stop
         style="stop-opacity:1;stop-color:#ffffff"
         offset="0"
         id="stop1368" />
      <stop
         style="stop-opacity:1;stop-color:#32b1e7"
         offset="0.5"
         id="stop1370" />
      <stop
         style="stop-opacity:1;stop-color:#323390"
         offset="1"
         id="stop1372" />
    </linearGradient>
    <radialGradient
       fx="0"
       fy="0"
       cx="0"
       cy="0"
       r="1"
       gradientUnits="userSpaceOnUse"
       gradientTransform="matrix(55.090588,0,0,-55.090588,491.96875,187.6709)"
       spreadMethod="pad"
       id="radialGradient1396">
      <stop
         style="stop-opacity:1;stop-color:#ffffff"
         offset="0"
         id="stop1390" />
      <stop
         style="stop-opacity:1;stop-color:#32b1e7"
         offset="0.5"
         id="stop1392" />
      <stop
         style="stop-opacity:1;stop-color:#323390"
         offset="1"
         id="stop1394" />
    </radialGradient>
    <linearGradient
       x1="0"
       y1="0"
       x2="1"
       y2="0"
       gradientUnits="userSpaceOnUse"
       gradientTransform="matrix(-82.504974,-163.46034,-163.46034,82.504974,451.38379,243.52539)"
       spreadMethod="pad"
       id="linearGradient1418">
      <stop
         style="stop-opacity:1;stop-color:#ffffff"
         offset="0"
         id="stop1412" />
      <stop
         style="stop-opacity:1;stop-color:#32b1e7"
         offset="0.5"
         id="stop1414" />
      <stop
         style="stop-opacity:1;stop-color:#323390"
         offset="1"
         id="stop1416" />
    </linearGradient>
    <linearGradient
       x1="0"
       y1="0"
       x2="1"
       y2="0"
       gradientUnits="userSpaceOnUse"
       gradientTransform="matrix(-21.132202,-91.009506,-91.009506,21.132202,427.28906,213.4541)"
       spreadMethod="pad"
       id="linearGradient1440">
      <stop
         style="stop-opacity:1;stop-color:#ffffff"
         offset="0"
         id="stop1434" />
      <stop
         style="stop-opacity:1;stop-color:#32b1e7"
         offset="0.5"
         id="stop1436" />
      <stop
         style="stop-opacity:1;stop-color:#323390"
         offset="1"
         id="stop1438" />
    </linearGradient>
    <radialGradient
       fx="0"
       fy="0"
       cx="0"
       cy="0"
       r="1"
       gradientUnits="userSpaceOnUse"
       gradientTransform="matrix(55.090073,0,0,-55.090073,424.33691,187.6709)"
       spreadMethod="pad"
       id="radialGradient1462">
      <stop
         style="stop-opacity:1;stop-color:#ffffff"
         offset="0"
         id="stop1456" />
      <stop
         style="stop-opacity:1;stop-color:#32b1e7"
         offset="0.5"
         id="stop1458" />
      <stop
         style="stop-opacity:1;stop-color:#323390"
         offset="1"
         id="stop1460" />
    </radialGradient>
    <linearGradient
       x1="0"
       y1="0"
       x2="1"
       y2="0"
       gradientUnits="userSpaceOnUse"
       gradientTransform="matrix(18.849974,-146.28606,-146.28606,-18.849974,471.19824,295.65625)"
       spreadMethod="pad"
       id="linearGradient1484">
      <stop
         style="stop-opacity:1;stop-color:#ffffff"
         offset="0"
         id="stop1478" />
      <stop
         style="stop-opacity:1;stop-color:#32b1e7"
         offset="0.5"
         id="stop1480" />
      <stop
         style="stop-opacity:1;stop-color:#323390"
         offset="1"
         id="stop1482" />
    </linearGradient>
    <radialGradient
       fx="0"
       fy="0"
       cx="0"
       cy="0"
       r="1"
       gradientUnits="userSpaceOnUse"
       gradientTransform="matrix(39.751743,0,0,-39.751743,503.25195,240.90332)"
       spreadMethod="pad"
       id="radialGradient1506">
      <stop
         style="stop-opacity:1;stop-color:#ffffff"
         offset="0"
         id="stop1500" />
      <stop
         style="stop-opacity:1;stop-color:#32b1e7"
         offset="0.5"
         id="stop1502" />
      <stop
         style="stop-opacity:1;stop-color:#323390"
         offset="1"
         id="stop1504" />
    </radialGradient>
    <radialGradient
       fx="0"
       fy="0"
       cx="0"
       cy="0"
       r="1"
       gradientUnits="userSpaceOnUse"
       gradientTransform="matrix(75.140236,0,0,-75.140236,509.3584,261.21191)"
       spreadMethod="pad"
       id="radialGradient1528">
      <stop
         style="stop-opacity:1;stop-color:#ffffff"
         offset="0"
         id="stop1522" />
      <stop
         style="stop-opacity:1;stop-color:#32b1e7"
         offset="0.5"
         id="stop1524" />
      <stop
         style="stop-opacity:1;stop-color:#323390"
         offset="1"
         id="stop1526" />
    </radialGradient>
    <radialGradient
       fx="0"
       fy="0"
       cx="0"
       cy="0"
       r="1"
       gradientUnits="userSpaceOnUse"
       gradientTransform="matrix(61.024746,0,0,-61.024746,478.95996,175.45898)"
       spreadMethod="pad"
       id="radialGradient1550">
      <stop
         style="stop-opacity:1;stop-color:#ffffff"
         offset="0"
         id="stop1544" />
      <stop
         style="stop-opacity:1;stop-color:#32b1e7"
         offset="0.5"
         id="stop1546" />
      <stop
         style="stop-opacity:1;stop-color:#323390"
         offset="1"
         id="stop1548" />
    </radialGradient>
    <radialGradient
       fx="0"
       fy="0"
       cx="0"
       cy="0"
       r="1"
       gradientUnits="userSpaceOnUse"
       gradientTransform="matrix(49.492363,0,0,-49.492363,485.33203,193.91016)"
       spreadMethod="pad"
       id="radialGradient1572">
      <stop
         style="stop-opacity:1;stop-color:#ffffff"
         offset="0"
         id="stop1566" />
      <stop
         style="stop-opacity:1;stop-color:#32b1e7"
         offset="0.5"
         id="stop1568" />
      <stop
         style="stop-opacity:1;stop-color:#323390"
         offset="1"
         id="stop1570" />
    </radialGradient>
    <radialGradient
       fx="0"
       fy="0"
       cx="0"
       cy="0"
       r="1"
       gradientUnits="userSpaceOnUse"
       gradientTransform="matrix(142.3783,0,0,-142.3783,551.30762,291.47559)"
       spreadMethod="pad"
       id="radialGradient1594">
      <stop
         style="stop-opacity:1;stop-color:#ffffff"
         offset="0"
         id="stop1588" />
      <stop
         style="stop-opacity:1;stop-color:#32b1e7"
         offset="0.5"
         id="stop1590" />
      <stop
         style="stop-opacity:1;stop-color:#323390"
         offset="1"
         id="stop1592" />
    </radialGradient>
    <radialGradient
       fx="0"
       fy="0"
       cx="0"
       cy="0"
       r="1"
       gradientUnits="userSpaceOnUse"
       gradientTransform="matrix(109.91151,0,0,-109.91151,490.24219,285.90137)"
       spreadMethod="pad"
       id="radialGradient1616">
      <stop
         style="stop-opacity:1;stop-color:#ffffff"
         offset="0"
         id="stop1610" />
      <stop
         style="stop-opacity:1;stop-color:#32b1e7"
         offset="0.5"
         id="stop1612" />
      <stop
         style="stop-opacity:1;stop-color:#323390"
         offset="1"
         id="stop1614" />
    </radialGradient>
    <radialGradient
       fx="0"
       fy="0"
       cx="0"
       cy="0"
       r="1"
       gradientUnits="userSpaceOnUse"
       gradientTransform="matrix(46.719715,0,0,-46.719715,477.63281,200.14941)"
       spreadMethod="pad"
       id="radialGradient1638">
      <stop
         style="stop-opacity:1;stop-color:#ffffff"
         offset="0"
         id="stop1632" />
      <stop
         style="stop-opacity:1;stop-color:#32b1e7"
         offset="0.5"
         id="stop1634" />
      <stop
         style="stop-opacity:1;stop-color:#323390"
         offset="1"
         id="stop1636" />
    </radialGradient>
    <linearGradient
       x1="0"
       y1="0"
       x2="1"
       y2="0"
       gradientUnits="userSpaceOnUse"
       gradientTransform="matrix(17.912521,-139.01093,-139.01093,-17.912521,431.89062,289.94629)"
       spreadMethod="pad"
       id="linearGradient1660">
      <stop
         style="stop-opacity:1;stop-color:#ffffff"
         offset="0"
         id="stop1654" />
      <stop
         style="stop-opacity:1;stop-color:#32b1e7"
         offset="0.5"
         id="stop1656" />
      <stop
         style="stop-opacity:1;stop-color:#323390"
         offset="1"
         id="stop1658" />
    </linearGradient>
    <radialGradient
       fx="0"
       fy="0"
       cx="0"
       cy="0"
       r="1"
       gradientUnits="userSpaceOnUse"
       gradientTransform="matrix(39.751743,0,0,-39.751743,468.70605,240.90332)"
       spreadMethod="pad"
       id="radialGradient1682">
      <stop
         style="stop-opacity:1;stop-color:#ffffff"
         offset="0"
         id="stop1676" />
      <stop
         style="stop-opacity:1;stop-color:#32b1e7"
         offset="0.5"
         id="stop1678" />
      <stop
         style="stop-opacity:1;stop-color:#323390"
         offset="1"
         id="stop1680" />
    </radialGradient>
    <radialGradient
       fx="0"
       fy="0"
       cx="0"
       cy="0"
       r="1"
       gradientUnits="userSpaceOnUse"
       gradientTransform="matrix(75.140236,0,0,-75.140236,435.47949,261.21191)"
       spreadMethod="pad"
       id="radialGradient1704">
      <stop
         style="stop-opacity:1;stop-color:#ffffff"
         offset="0"
         id="stop1698" />
      <stop
         style="stop-opacity:1;stop-color:#32b1e7"
         offset="0.5"
         id="stop1700" />
      <stop
         style="stop-opacity:1;stop-color:#323390"
         offset="1"
         id="stop1702" />
    </radialGradient>
    <radialGradient
       fx="0"
       fy="0"
       cx="0"
       cy="0"
       r="1"
       gradientUnits="userSpaceOnUse"
       gradientTransform="matrix(61.024746,0,0,-61.024746,429.03613,175.45898)"
       spreadMethod="pad"
       id="radialGradient1726">
      <stop
         style="stop-opacity:1;stop-color:#ffffff"
         offset="0"
         id="stop1720" />
      <stop
         style="stop-opacity:1;stop-color:#32b1e7"
         offset="0.5"
         id="stop1722" />
      <stop
         style="stop-opacity:1;stop-color:#323390"
         offset="1"
         id="stop1724" />
    </radialGradient>
    <radialGradient
       fx="0"
       fy="0"
       cx="0"
       cy="0"
       r="1"
       gradientUnits="userSpaceOnUse"
       gradientTransform="matrix(49.492363,0,0,-49.492363,435.10547,193.91016)"
       spreadMethod="pad"
       id="radialGradient1748">
      <stop
         style="stop-opacity:1;stop-color:#ffffff"
         offset="0"
         id="stop1742" />
      <stop
         style="stop-opacity:1;stop-color:#32b1e7"
         offset="0.5"
         id="stop1744" />
      <stop
         style="stop-opacity:1;stop-color:#323390"
         offset="1"
         id="stop1746" />
    </radialGradient>
    <radialGradient
       fx="0"
       fy="0"
       cx="0"
       cy="0"
       r="1"
       gradientUnits="userSpaceOnUse"
       gradientTransform="matrix(142.37706,0,0,-142.37706,486.74121,291.47559)"
       spreadMethod="pad"
       id="radialGradient1770">
      <stop
         style="stop-opacity:1;stop-color:#ffffff"
         offset="0"
         id="stop1764" />
      <stop
         style="stop-opacity:1;stop-color:#32b1e7"
         offset="0.5"
         id="stop1766" />
      <stop
         style="stop-opacity:1;stop-color:#323390"
         offset="1"
         id="stop1768" />
    </radialGradient>
    <radialGradient
       fx="0"
       fy="0"
       cx="0"
       cy="0"
       r="1"
       gradientUnits="userSpaceOnUse"
       gradientTransform="matrix(109.91151,0,0,-109.91151,444.70801,285.90137)"
       spreadMethod="pad"
       id="radialGradient1792">
      <stop
         style="stop-opacity:1;stop-color:#ffffff"
         offset="0"
         id="stop1786" />
      <stop
         style="stop-opacity:1;stop-color:#32b1e7"
         offset="0.5"
         id="stop1788" />
      <stop
         style="stop-opacity:1;stop-color:#323390"
         offset="1"
         id="stop1790" />
    </radialGradient>
    <radialGradient
       fx="0"
       fy="0"
       cx="0"
       cy="0"
       r="1"
       gradientUnits="userSpaceOnUse"
       gradientTransform="matrix(46.719715,0,0,-46.719715,428.94238,200.14941)"
       spreadMethod="pad"
       id="radialGradient1814">
      <stop
         style="stop-opacity:1;stop-color:#ffffff"
         offset="0"
         id="stop1808" />
      <stop
         style="stop-opacity:1;stop-color:#32b1e7"
         offset="0.5"
         id="stop1810" />
      <stop
         style="stop-opacity:1;stop-color:#323390"
         offset="1"
         id="stop1812" />
    </radialGradient>
  </defs>
  <sodipodi:namedview
     id="namedview4"
     pagecolor="#ffffff"
     bordercolor="#000000"
     borderopacity="0.25"
     inkscape:showpageshadow="2"
     inkscape:pageopacity="0.0"
     inkscape:pagecheckerboard="0"
     inkscape:deskcolor="#d1d1d1"
     showgrid="true">
    <inkscape:grid
       type="xygrid"
       id="grid14454" />
  </sodipodi:namedview>
  <g
     id="g10"
     inkscape:groupmode="layer"
     inkscape:label="Page 1"
     transform="matrix(1.3333333,0,0,-1.3333333,-577.03235,332.52935)">
    <g
       id="g3168"
       inkscape:export-filename="../../Projects/deno_projects/inotify/static/logo.svg"
       inkscape:export-xdpi="96"
       inkscape:export-ydpi="96"
       transform="translate(39)">
      <g
         id="g1290">
        <g
           id="g1292">
          <g
             id="g1298">
            <g
               id="g1300">
              <path
                 d="m 502.335,182.03 c -1.58,-3.706 -3.876,-7.008 -6.143,-10.339 v 0 c -3.736,-5.512 -7.353,-11.171 -7.353,-19.096 v 0 c 0,-14.099 -11.43,-25.559 -25.529,-25.559 v 0 c -14.1,0 -25.559,11.46 -25.559,25.559 v 0 c 0,7.925 -3.589,13.584 -7.322,19.096 v 0 c -2.269,3.331 -4.567,6.633 -6.145,10.339 v 0 c -2.641,6.231 -3.188,13.61 2.038,24.408 v 0 c -12.836,-13.612 -20.36,-29.778 -11.228,-53.843 v 0 c 0,-26.62 21.594,-48.215 48.216,-48.215 v 0 c 26.62,0 48.186,21.595 48.186,48.215 v 0 c 9.16,24.065 1.638,40.231 -11.228,53.843 v 0 c 5.255,-10.798 4.681,-18.177 2.067,-24.408"
                 style="fill:url(#linearGradient1308);stroke:none"
                 id="path1310" />
            </g>
          </g>
        </g>
      </g>
      <g
         id="g1312">
        <g
           id="g1314">
          <g
             id="g1320">
            <g
               id="g1322">
              <path
                 d="m 502.335,182.03 c -1.58,-3.706 -3.876,-7.008 -6.143,-10.339 v 0 c -0.172,-0.229 4.364,-14.185 4.364,-19.096 v 0 c 0,-20.591 -16.686,-37.246 -37.246,-37.246 v 0 c -20.59,0 -37.246,16.655 -37.246,37.246 v 0 c 0,4.911 4.509,18.867 4.365,19.096 v 0 c -2.269,3.331 -4.567,6.633 -6.145,10.339 v 0 c -2.641,6.231 -3.188,13.61 2.038,24.408 v 0 c -12.836,-13.612 -20.36,-29.778 -11.228,-53.843 v 0 c 0,-26.62 21.594,-48.215 48.216,-48.215 v 0 c 26.62,0 48.186,21.595 48.186,48.215 v 0 c 9.16,24.065 1.638,40.231 -11.228,53.843 v 0 c 5.255,-10.798 4.681,-18.177 2.067,-24.408"
                 style="fill:url(#linearGradient1330);stroke:none"
                 id="path1332" />
            </g>
          </g>
        </g>
      </g>
      <g
         id="g1334">
        <g
           id="g1336">
          <g
             id="g1342">
            <g
               id="g1344">
              <path
                 d="m 502.335,182.03 c 5.37,-8.587 9.161,-17.834 9.161,-29.435 v 0 c 9.16,24.065 1.638,40.231 -11.228,53.843 v 0 c 5.255,-10.798 4.681,-18.177 2.067,-24.408"
                 style="fill:url(#linearGradient1352);stroke:none"
                 id="path1354" />
            </g>
          </g>
        </g>
      </g>
      <g
         id="g1356">
        <g
           id="g1358">
          <g
             id="g1364">
            <g
               id="g1366">
              <path
                 d="m 502.335,182.03 c 2.384,-3.82 4.48,-7.755 6.03,-12.005 v 0 c 3.676,11.258 2.241,23.232 -8.097,36.413 v 0 c 5.255,-10.798 4.681,-18.177 2.067,-24.408"
                 style="fill:url(#linearGradient1374);stroke:none"
                 id="path1376" />
            </g>
          </g>
        </g>
      </g>
      <g
         id="g1378">
        <g
           id="g1380">
          <g
             id="g1386">
            <g
               id="g1388">
              <path
                 d="m 502.335,182.03 c -4.163,-9.792 -13.496,-16.686 -13.496,-29.435 v 0 c 1.206,11.027 9.936,18.838 14.185,28.285 v 0 c 3.102,6.805 4.021,14.158 -2.756,25.558 v 0 c 5.255,-10.798 4.681,-18.177 2.067,-24.408"
                 style="fill:url(#radialGradient1396);stroke:none"
                 id="path1398" />
            </g>
          </g>
        </g>
      </g>
      <g
         id="g1400">
        <g
           id="g1402">
          <g
             id="g1408">
            <g
               id="g1410">
              <path
                 d="m 415.094,152.595 c 0,11.601 3.792,20.848 9.161,29.435 v 0 c -2.613,6.231 -3.187,13.61 2.067,24.408 v 0 C 413.458,192.826 405.934,176.66 415.094,152.595"
                 style="fill:url(#linearGradient1418);stroke:none"
                 id="path1420" />
            </g>
          </g>
        </g>
      </g>
      <g
         id="g1422">
        <g
           id="g1424">
          <g
             id="g1430">
            <g
               id="g1432">
              <path
                 d="m 418.224,170.025 c 1.55,4.25 3.647,8.185 6.031,12.005 v 0 c -2.613,6.231 -3.187,13.61 2.067,24.408 v 0 c -10.338,-13.181 -11.773,-25.155 -8.098,-36.413"
                 style="fill:url(#linearGradient1440);stroke:none"
                 id="path1442" />
            </g>
          </g>
        </g>
      </g>
      <g
         id="g1444">
        <g
           id="g1446">
          <g
             id="g1452">
            <g
               id="g1454">
              <path
                 d="m 423.565,180.88 c 4.25,-9.447 12.981,-17.258 14.186,-28.285 v 0 c 0,12.749 -9.332,19.643 -13.496,29.435 v 0 c -2.613,6.231 -3.187,13.61 2.067,24.408 v 0 c -6.777,-11.4 -5.857,-18.753 -2.757,-25.558"
                 style="fill:url(#radialGradient1462);stroke:none"
                 id="path1464" />
            </g>
          </g>
        </g>
      </g>
      <g
         id="g1466">
        <g
           id="g1468">
          <g
             id="g1474">
            <g
               id="g1476">
              <path
                 d="m 469.399,195.841 c 5.512,-14.961 19.44,-27.711 19.44,-43.246 v 0 c 0,12.749 9.333,19.643 13.496,29.435 v 0 c -1.894,3.014 -3.963,5.914 -6.143,8.816 v 0 c -6.519,-6.089 -17.864,-0.805 -15.565,20.875 v 0 c -1.494,2.269 -2.929,4.594 -4.281,7.037 v 0 c -4.766,8.615 -5.685,18.465 -6.661,30.639 v 0 c -5.888,-18.379 -6.633,-36.44 -0.286,-53.556"
                 style="fill:url(#linearGradient1484);stroke:none"
                 id="path1486" />
            </g>
          </g>
        </g>
      </g>
      <g
         id="g1488">
        <g
           id="g1490">
          <g
             id="g1496">
            <g
               id="g1498">
              <path
                 d="m 476.346,218.758 c 1.352,-2.443 2.787,-4.768 4.281,-7.037 v 0 c 0.516,5.141 1.838,11.2 4.162,18.265 v 0 c -3.473,-2.872 -6.317,-6.747 -8.443,-11.228"
                 style="fill:url(#radialGradient1506);stroke:none"
                 id="path1508" />
            </g>
          </g>
        </g>
      </g>
      <g
         id="g1510">
        <g
           id="g1512">
          <g
             id="g1518">
            <g
               id="g1520">
              <path
                 d="m 496.192,190.846 c 2.18,-2.902 4.249,-5.802 6.143,-8.816 v 0 c 2.614,6.231 3.188,13.61 -2.067,24.408 v 0 c 0.975,-7.352 -1.034,-12.722 -4.076,-15.592"
                 style="fill:url(#radialGradient1528);stroke:none"
                 id="path1530" />
            </g>
          </g>
        </g>
      </g>
      <g
         id="g1532">
        <g
           id="g1534">
          <g
             id="g1540">
            <g
               id="g1542">
              <path
                 d="m 480.627,211.721 c -2.299,-21.68 9.046,-26.964 15.565,-20.875 v 0 c -5.171,9.589 -15.565,20.875 -11.403,39.14 v 0 c -2.324,-7.065 -3.646,-13.124 -4.162,-18.265"
                 style="fill:url(#radialGradient1550);stroke:none"
                 id="path1552" />
            </g>
          </g>
        </g>
      </g>
      <g
         id="g1554">
        <g
           id="g1556">
          <g
             id="g1562">
            <g
               id="g1564">
              <path
                 d="m 480.627,211.721 c 4.909,-7.466 10.508,-14.127 15.565,-20.875 v 0 c -5.171,9.589 -15.565,20.875 -11.403,39.14 v 0 c -2.324,-7.065 -3.646,-13.124 -4.162,-18.265"
                 style="fill:url(#radialGradient1572);stroke:none"
                 id="path1574" />
            </g>
          </g>
        </g>
      </g>
      <g
         id="g1576">
        <g
           id="g1578">
          <g
             id="g1584">
            <g
               id="g1586">
              <path
                 d="m 488.839,152.595 c 0,12.749 9.333,19.643 13.496,29.435 v 0 c -1.12,1.75 -2.268,3.473 -3.475,5.167 v 0 c -1.55,-12.892 -10.539,-16.567 -10.021,-34.602"
                 style="fill:url(#radialGradient1594);stroke:none"
                 id="path1596" />
            </g>
          </g>
        </g>
      </g>
      <g
         id="g1598">
        <g
           id="g1600">
          <g
             id="g1606">
            <g
               id="g1608">
              <path
                 d="m 495.902,190.616 c -6.546,-5.716 -17.545,-0.259 -15.275,21.105 v 0 c -1.494,2.269 -2.929,4.594 -4.281,7.037 v 0 c -1.635,-30.784 13.327,-36.126 19.556,-28.142"
                 style="fill:url(#radialGradient1616);stroke:none"
                 id="path1618" />
            </g>
          </g>
        </g>
      </g>
      <g
         id="g1620">
        <g
           id="g1622">
          <g
             id="g1628">
            <g
               id="g1630">
              <path
                 d="m 480.627,211.721 c -2.155,-20.359 7.724,-26.275 14.329,-21.852 v 0 c -6.004,-3.158 -14.56,3.072 -13.727,20.933 v 0 c 0.23,5.343 1.32,11.718 3.56,19.184 v 0 c -2.324,-7.065 -3.646,-13.124 -4.162,-18.265"
                 style="fill:url(#radialGradient1638);stroke:none"
                 id="path1640" />
            </g>
          </g>
        </g>
      </g>
      <g
         id="g1642">
        <g
           id="g1644">
          <g
             id="g1650">
            <g
               id="g1652">
              <path
                 d="m 450.243,218.758 c -1.348,-2.443 -2.785,-4.768 -4.279,-7.037 v 0 c 2.299,-21.68 -9.046,-26.964 -15.563,-20.875 v 0 c -2.183,-2.902 -4.252,-5.802 -6.146,-8.816 v 0 c 4.164,-9.792 13.496,-16.686 13.496,-29.435 v 0 c 0,15.535 13.927,28.285 19.442,43.246 v 0 c 6.345,17.116 5.6,35.177 -0.287,53.556 v 0 c -0.978,-12.174 -1.896,-22.024 -6.663,-30.639"
                 style="fill:url(#linearGradient1660);stroke:none"
                 id="path1662" />
            </g>
          </g>
        </g>
      </g>
      <g
         id="g1664">
        <g
           id="g1666">
          <g
             id="g1672">
            <g
               id="g1674">
              <path
                 d="m 445.964,211.721 c 1.494,2.269 2.931,4.594 4.279,7.037 v 0 c -2.125,4.481 -4.969,8.356 -8.443,11.228 v 0 c 2.326,-7.065 3.646,-13.124 4.164,-18.265"
                 style="fill:url(#radialGradient1682);stroke:none"
                 id="path1684" />
            </g>
          </g>
        </g>
      </g>
      <g
         id="g1686">
        <g
           id="g1688">
          <g
             id="g1694">
            <g
               id="g1696">
              <path
                 d="m 424.255,182.03 c 1.894,3.014 3.963,5.914 6.146,8.816 v 0 c -3.045,2.87 -5.055,8.24 -4.078,15.592 v 0 c -5.255,-10.798 -4.681,-18.177 -2.068,-24.408"
                 style="fill:url(#radialGradient1704);stroke:none"
                 id="path1706" />
            </g>
          </g>
        </g>
      </g>
      <g
         id="g1708">
        <g
           id="g1710">
          <g
             id="g1716">
            <g
               id="g1718">
              <path
                 d="m 430.401,190.846 c 6.517,-6.089 17.862,-0.805 15.563,20.875 v 0 c -0.518,5.141 -1.838,11.2 -4.164,18.265 v 0 c 4.164,-18.265 -6.232,-29.551 -11.399,-39.14"
                 style="fill:url(#radialGradient1726);stroke:none"
                 id="path1728" />
            </g>
          </g>
        </g>
      </g>
      <g
         id="g1730">
        <g
           id="g1732">
          <g
             id="g1738">
            <g
               id="g1740">
              <path
                 d="m 430.401,190.846 c 5.053,6.748 10.653,13.409 15.563,20.875 v 0 c -0.518,5.141 -1.838,11.2 -4.164,18.265 v 0 c 4.164,-18.265 -6.232,-29.551 -11.399,-39.14"
                 style="fill:url(#radialGradient1748);stroke:none"
                 id="path1750" />
            </g>
          </g>
        </g>
      </g>
      <g
         id="g1752">
        <g
           id="g1754">
          <g
             id="g1760">
            <g
               id="g1762">
              <path
                 d="m 424.255,182.03 c 4.164,-9.792 13.496,-16.686 13.496,-29.435 v 0 c 0.517,18.035 -8.471,21.71 -10.022,34.602 v 0 c -1.206,-1.694 -2.355,-3.417 -3.474,-5.167"
                 style="fill:url(#radialGradient1770);stroke:none"
                 id="path1772" />
            </g>
          </g>
        </g>
      </g>
      <g
         id="g1774">
        <g
           id="g1776">
          <g
             id="g1782">
            <g
               id="g1784">
              <path
                 d="m 445.964,211.721 c 2.269,-21.364 -8.729,-26.821 -15.276,-21.105 v 0 c 6.23,-7.984 21.192,-2.642 19.555,28.142 v 0 c -1.348,-2.443 -2.785,-4.768 -4.279,-7.037"
                 style="fill:url(#radialGradient1792);stroke:none"
                 id="path1794" />
            </g>
          </g>
        </g>
      </g>
      <g
         id="g1796">
        <g
           id="g1798">
          <g
             id="g1804">
            <g
               id="g1806">
              <path
                 d="m 445.362,210.802 c 0.832,-17.861 -7.725,-24.091 -13.727,-20.933 v 0 c 6.606,-4.423 16.483,1.493 14.329,21.852 v 0 c -0.518,5.141 -1.838,11.2 -4.164,18.265 v 0 c 2.24,-7.466 3.332,-13.841 3.562,-19.184"
                 style="fill:url(#radialGradient1814);stroke:none"
                 id="path1816" />
            </g>
          </g>
        </g>
      </g>
    </g>
    <text
       xml:space="preserve"
       transform="scale(0.99881909,-1.0011823)"
       style="font-variant:normal;font-weight:normal;font-stretch:normal;font-size:47.6891px;font-family:'Ceviche One';-inkscape-font-specification:CevicheOne-Regular;writing-mode:lr-tb;fill:#3f3b3a;fill-opacity:1;fill-rule:nonzero;stroke:none;stroke-width:0.998819"
       id="text2360-3-7"
       x="431.04456"
       y="-67.097237"><tspan
         sodipodi:role="line"
         id="tspan2358-6-5"
         x="431.04456"
         y="-67.097237"
         style="stroke-width:0.998819">NotiFire</tspan></text>
  </g>
</svg>
