<?xml version="1.0" standalone="no"?>
<!DOCTYPE svg PUBLIC "-//W3C//DTD SVG 20010904//EN"
 "http://www.w3.org/TR/2001/REC-SVG-20010904/DTD/svg10.dtd">
<svg version="1.0" xmlns="http://www.w3.org/2000/svg"
 width="772.000000pt" height="772.000000pt" viewBox="0 0 772.000000 772.000000"
 preserveAspectRatio="xMidYMid meet">
<metadata>
Created by potrace 1.14, written by Peter Selinger 2001-2017
</metadata>
<g transform="translate(0.000000,772.000000) scale(0.100000,-0.100000)"
fill="#000000" stroke="none">
<path d="M3517 7690 c-3 -14 -13 -113 -22 -220 -51 -605 -143 -1010 -301
-1321 l-26 -52 -42 79 c-58 109 -107 185 -181 279 -60 76 -222 242 -229 234
-2 -2 5 -51 15 -109 26 -143 35 -397 20 -530 -34 -296 -135 -575 -342 -950
-29 -52 -46 -89 -37 -82 8 7 23 10 31 6 18 -6 -21 -64 -168 -249 -39 -49 -83
-107 -97 -128 l-25 -38 -47 52 c-57 64 -119 188 -146 295 -25 98 -39 271 -30
384 3 47 4 87 2 90 -6 7 -110 -108 -222 -247 -335 -414 -532 -858 -581 -1305
-17 -155 -6 -504 20 -653 31 -174 74 -345 130 -513 44 -133 49 -159 55 -272
41 -763 410 -1461 1016 -1919 876 -662 2073 -696 2980 -86 677 456 1094 1193
1136 2010 5 89 13 145 25 178 68 175 149 501 174 700 19 157 20 462 0 609 -64
481 -288 930 -696 1396 -88 100 -117 123 -104 82 13 -41 6 -305 -10 -390 -21
-107 -65 -221 -114 -296 -37 -57 -87 -112 -95 -103 -16 19 -302 496 -356 596
-162 297 -249 554 -281 833 -15 132 -6 388 19 528 12 70 14 102 7 102 -15 0
-181 -171 -237 -245 -59 -79 -112 -161 -164 -259 l-42 -79 -30 59 c-156 312
-247 710 -297 1314 -22 265 -22 264 -56 155 -16 -49 -49 -170 -74 -267 -217
-861 -198 -1666 56 -2404 107 -309 173 -435 581 -1104 266 -437 377 -676 445
-960 33 -142 43 -410 19 -547 -96 -553 -507 -983 -1057 -1105 -136 -30 -396
-32 -531 -5 -561 113 -986 549 -1084 1110 -24 137 -14 405 19 547 68 284 179
523 445 960 408 669 474 795 581 1104 254 738 273 1543 56 2404 -63 248 -101
364 -108 332z m1293 -2415 c1 6 13 -48 28 -120 15 -71 24 -132 20 -135 -3 -3
-10 -20 -15 -39 -8 -33 -10 -30 -30 60 -12 52 -25 132 -29 179 -6 79 -5 84 10
65 8 -11 16 -15 16 -10z m-3114 -880 c8 -44 29 -120 44 -170 16 -49 27 -91 25
-94 -3 -2 -5 1 -5 7 0 7 -8 12 -19 12 -44 0 -101 203 -108 388 -5 121 -4 134
13 151 19 17 19 15 26 -98 4 -64 15 -152 24 -196z"/>
</g>
</svg>
